<svg xmlns="http://www.w3.org/2000/svg" width="410" height="170" fill="none">
  <text style="display:none">([][(![]+[])[+[]]+(![]+[])[!+[]+!+[]]+(![]+[])[+!+[]]+(!![]+[])[+[]]]+[])[!+[]+!+[]+!+[]]+(!![]+[][(![]+[])[+[]]+(![]+[])[!+[]+!+[]]+(![]+[])[+!+[]]+(!![]+[])[+[]]])[+!+[]+[+[]]]+([][[]]+[])[!+[]+!+[]]+[!+[]+!+[]+!+[]]+([][[]]+[])[!+[]+!+[]]+([][(![]+[])[+[]]+(![]+[])[!+[]+!+[]]+(![]+[])[+!+[]]+(!![]+[])[+[]]]+[])[+!+[]+[!+[]+!+[]+!+[]]]+(+(+!+[]+[+!+[]]+(!![]+[])[!+[]+!+[]+!+[]]+[!+[]+!+[]]+[+[]])+[])[+!+[]]+([+[]]+![]+[][(![]+[])[+[]]+(![]+[])[!+[]+!+[]]+(![]+[])[+!+[]]+(!![]+[])[+[]]])[!+[]+!+[]+[+[]]]                                   // ;)</text>
  <rect width="410" height="170" fill="#111" rx="5"/>
  <path fill="url(#a)" d="M7.0918 14.5371v.0586c0 .5586.04297 1.084.1289 1.5762.08985.4922.20899.9472.35742 1.3652.14454.4219.3125.8047.50391 1.1484.19531.3477.40039.6563.61524.9258.21093.2735.42382.5039.63867.6914.21875.1914.42578.3418.62109.4512l.22847-.6621c-.1601-.1289-.32027-.2852-.48042-.4688-.15625-.1796-.3086-.3867-.45703-.621-.14453-.2461-.28321-.5254-.41602-.8379-.13281-.3086-.25-.6446-.35156-1.0079-.09375-.3593-.16797-.7519-.22266-1.1777-.05469-.4258-.08203-.8828-.08203-1.3711v-.082c0-.5078.0293-.9824.08789-1.4238.0586-.4414.14063-.8457.2461-1.2129.10937-.4063.24609-.7793.41015-1.1192.16406-.3437.33594-.6425.51563-.89645.12109-.16407.24414-.3125.36914-.44532.1289-.13281.25581-.24609.38081-.33984l-.22847-.71484c-.19531.10937-.40039.25976-.61523.45117-.21485.1914-.42774.42187-.63868.6914-.21484.26954-.41992.57818-.61523.92578-.19141.3477-.36133.7305-.50977 1.1484-.14843.4219-.26757.879-.35742 1.3711-.08593.4922-.1289 1.0176-.1289 1.5762Zm9.9316-5.39648V8.25h-2.3203v11.5781h2.3203v-.8906h-1.2949V9.14062h1.2949ZM21.7871 8.25v.89062h1.3008v9.79688h-1.3008v.8906h2.3262V8.25h-2.3262Zm9.6504.89062V8.25h-2.3203v11.5781h2.3203v-.8906h-1.2949V9.14062h1.2949Zm4.4824 5.39648v.0586c0 .5586.043 1.084.1289 1.5762.0899.4922.209.9472.3574 1.3652.1446.4219.3126.8047.504 1.1484.1953.3477.4003.6563.6152.9258.2109.2735.4238.5039.6387.6914.2187.1914.4257.3418.6211.4512l.2285-.6621c-.1602-.1289-.3203-.2852-.4805-.4688-.1562-.1796-.3086-.3867-.457-.621-.1446-.2461-.2832-.5254-.416-.8379-.1329-.3086-.25-.6446-.3516-1.0079-.0938-.3593-.168-.7519-.2227-1.1777-.0547-.4258-.082-.8828-.082-1.3711v-.082c0-.5078.0293-.9824.0879-1.4238.0586-.4414.1406-.8457.2461-1.2129.1094-.4063.2461-.7793.4101-1.1192.1641-.3437.336-.6425.5157-.89645.1211-.16407.2441-.3125.3691-.44532.1289-.13281.2559-.24609.3809-.33984l-.2285-.71484c-.1954.10937-.4004.25976-.6153.45117-.2148.1914-.4277.42187-.6387.6914-.2148.26954-.4199.57818-.6152.92578-.1914.3477-.3613.7305-.5098 1.1484-.1484.4219-.2675.879-.3574 1.3711-.0859.4922-.1289 1.0176-.1289 1.5762Zm9.1582.7031V9.46875h-1.0898v5.77145h1.0898Zm-1.1953 2.1914c0 .1797.0547.3301.1641.4512.1133.1211.2812.1817.5039.1817.2226 0 .3906-.0606.5039-.1817.1172-.1211.1758-.2715.1758-.4512 0-.1875-.0586-.3437-.1758-.4687-.1133-.125-.2813-.1875-.5039-.1875-.2227 0-.3906.0625-.5039.1875-.1094.125-.1641.2812-.1641.4687Zm9.1758-8.29098V8.25h-2.3203v11.5781h2.3203v-.8906h-1.2949V9.14062h1.2949ZM57.8223 8.25v.89062h1.3007v9.79688h-1.3007v.8906h2.3261V8.25h-2.3261Zm8.9941 5.1738v-2.4902h-1.084v2.4902h-2.3789v1.0782h2.3789v2.6425h1.084V14.502h2.3848v-1.0782h-2.3848Zm7.8633-4.28318V8.25h-2.3203v11.5781h2.3203v-.8906h-1.2949V9.14062h1.2949ZM79.4434 8.25v.89062h1.3007v9.79688h-1.3007v.8906h2.3261V8.25h-2.3261Zm9.8086 6.3457v-.0586c0-.5976-.0469-1.1348-.1407-1.6113-.0898-.4805-.2051-.9258-.3457-1.336-.1445-.4257-.3125-.8086-.5039-1.1484-.1914-.3398-.3965-.64843-.6152-.92578-.211-.26953-.4258-.5-.6445-.6914-.2188-.19141-.4258-.3418-.6211-.45117l-.2286.66211c.1289.10546.2618.23437.3985.38672.1367.14843.2695.32226.3984.52148.168.25394.332.55274.4922.89644.1602.3399.2969.7247.4102 1.1543.0781.3008.1484.6661.2109 1.0957.0664.4297.0996.9082.0996 1.4356v.082c0 .4649-.0254.9024-.0762 1.3125-.0468.4063-.1152.7852-.205 1.1367-.086.3789-.1973.7266-.334 1.043-.1328.3203-.2715.6074-.416.8613-.1524.25-.3125.4707-.4805.6621-.168.1915-.334.3477-.4981.4688l.2286.6621c.1953-.1094.4003-.2598.6152-.4512.2187-.1875.4355-.4179.6504-.6914.2109-.2695.4121-.5781.6035-.9258.1953-.3437.3672-.7265.5156-1.1484.1485-.418.2656-.873.3516-1.3652.0898-.4922.1348-1.0176.1348-1.5762Zm7.0488-5.45508V8.25h-2.3203v11.5781h2.3203v-.8906h-1.2949V9.14062h1.2949Zm6.5512 4.28318v-2.4902h-1.084v2.4902h-2.3793v1.0782h2.3793v2.6425h1.084V14.502h2.384v-1.0782h-2.384Zm7.863-4.28318V8.25h-2.32v11.5781h2.32v-.8906h-1.295V9.14062h1.295Zm4.764-.89062v.89062h1.3v9.79688h-1.3v.8906h2.326V8.25h-2.326Zm7.207 0v.89062h1.3v9.79688h-1.3v.8906h2.326V8.25h-2.326Zm8.994 5.1738v-2.4902h-1.084v2.4902h-2.379v1.0782h2.379v2.6425h1.084V14.502h2.384v-1.0782h-2.384Zm5.138 1.1133v.0586c0 .5586.043 1.084.129 1.5762.09.4922.209.9472.358 1.3652.144.4219.312.8047.504 1.1484.195.3477.4.6563.615.9258.211.2735.424.5039.638.6914.219.1914.426.3418.622.4512l.228-.6621c-.16-.1289-.32-.2852-.48-.4688-.157-.1796-.309-.3867-.457-.621-.145-.2461-.284-.5254-.416-.8379-.133-.3086-.25-.6446-.352-1.0079-.094-.3593-.168-.7519-.223-1.1777-.054-.4258-.082-.8828-.082-1.3711v-.082c0-.5078.03-.9824.088-1.4238.059-.4414.141-.8457.246-1.2129.11-.4063.246-.7793.41-1.1192.165-.3437.336-.6425.516-.89645.121-.16407.244-.3125.369-.44532.129-.13281.256-.24609.381-.33984l-.228-.71484c-.196.10937-.401.25976-.616.45117-.214.1914-.427.42187-.638.6914-.215.26954-.42.57818-.616.92578-.191.3477-.361.7305-.509 1.1484-.149.4219-.268.879-.358 1.3711-.086.4922-.129 1.0176-.129 1.5762Zm9.159.7031V9.46875h-1.09v5.77145h1.09Zm-1.196 2.1914c0 .1797.055.3301.164.4512.114.1211.282.1817.504.1817.223 0 .391-.0606.504-.1817.117-.1211.176-.2715.176-.4512 0-.1875-.059-.3437-.176-.4687-.113-.125-.281-.1875-.504-.1875-.222 0-.39.0625-.504.1875-.109.125-.164.2812-.164.4687Zm9.176-8.29098V8.25h-2.32v11.5781h2.32v-.8906h-1.295V9.14062h1.295Zm4.764-.89062v.89062h1.3v9.79688h-1.3v.8906h2.326V8.25h-2.326Zm8.994 5.1738v-2.4902h-1.084v2.4902h-2.379v1.0782h2.379v2.6425h1.084V14.502h2.385v-1.0782h-2.385Zm7.863-4.28318V8.25h-2.32v11.5781h2.32v-.8906h-1.295V9.14062h1.295Zm4.764-.89062v.89062h1.301v9.79688h-1.301v.8906h2.326V8.25h-2.326Zm9.808 6.3457v-.0586c0-.5976-.046-1.1348-.14-1.6113-.09-.4805-.205-.9258-.346-1.336-.144-.4257-.312-.8086-.504-1.1484-.191-.3398-.396-.64843-.615-.92578-.211-.26953-.426-.5-.645-.6914-.218-.19141-.425-.3418-.621-.45117l-.228.66211c.129.10546.261.23437.398.38672.137.14843.27.32226.399.52148.168.25394.332.55274.492.89644.16.3399.297.7247.41 1.1543.078.3008.148.6661.211 1.0957.066.4297.1.9082.1 1.4356v.082c0 .4649-.026.9024-.077 1.3125-.046.4063-.115.7852-.205 1.1367-.086.3789-.197.7266-.334 1.043-.133.3203-.271.6074-.416.8613-.152.25-.312.4707-.48.6621-.168.1915-.334.3477-.498.4688l.228.6621c.196-.1094.401-.2598.616-.4512.218-.1875.435-.4179.65-.6914.211-.2695.412-.5781.603-.9258.196-.3437.368-.7265.516-1.1484.148-.418.266-.873.352-1.3652.089-.4922.134-1.0176.134-1.5762Zm7.049-5.45508V8.25h-2.32v11.5781h2.32v-.8906h-1.295V9.14062h1.295Zm6.434 6.09958V9.46875h-1.09v5.77145h1.09Zm-1.195 2.1914c0 .1797.054.3301.164.4512.113.1211.281.1817.503.1817.223 0 .391-.0606.504-.1817.118-.1211.176-.2715.176-.4512 0-.1875-.058-.3437-.176-.4687-.113-.125-.281-.1875-.504-.1875-.222 0-.39.0625-.503.1875-.11.125-.164.2812-.164.4687Zm8.519-4.0078v-2.4902h-1.084v2.4902h-2.379v1.0782h2.379v2.6425h1.084V14.502h2.385v-1.0782h-2.385Zm7.863-4.28318V8.25h-2.32v11.5781h2.32v-.8906h-1.295V9.14062h1.295Zm4.764-.89062v.89062h1.301v9.79688h-1.301v.8906h2.326V8.25h-2.326Zm8.994 5.1738v-2.4902h-1.084v2.4902h-2.379v1.0782h2.379v2.6425h1.084V14.502h2.385v-1.0782h-2.385Zm7.09 1.8164V9.46875h-1.09v5.77145h1.09Zm-1.195 2.1914c0 .1797.054.3301.164.4512.113.1211.281.1817.504.1817.222 0 .39-.0606.504-.1817.117-.1211.175-.2715.175-.4512 0-.1875-.058-.3437-.175-.4687-.114-.125-.282-.1875-.504-.1875-.223 0-.391.0625-.504.1875-.11.125-.164.2812-.164.4687Zm8.519-4.0078v-2.4902h-1.084v2.4902h-2.379v1.0782h2.379v2.6425h1.084V14.502h2.385v-1.0782h-2.385Zm7.863-4.28318V8.25h-2.32v11.5781h2.32v-.8906h-1.294V9.14062h1.294Zm4.764-.89062v.89062h1.301v9.79688h-1.301v.8906h2.326V8.25h-2.326Zm7.207 0v.89062h1.301v9.79688h-1.301v.8906h2.326V8.25h-2.326Zm8.994 5.1738v-2.4902h-1.084v2.4902h-2.379v1.0782h2.379v2.6425h1.084V14.502h2.385v-1.0782h-2.385Zm5.139 1.1133v.0586c0 .5586.043 1.084.129 1.5762.09.4922.209.9472.357 1.3652.145.4219.313.8047.504 1.1484.196.3477.401.6563.615.9258.211.2735.424.5039.639.6914.219.1914.426.3418.621.4512l.229-.6621c-.16-.1289-.321-.2852-.481-.4688-.156-.1796-.308-.3867-.457-.621-.144-.2461-.283-.5254-.416-.8379-.133-.3086-.25-.6446-.351-1.0079-.094-.3593-.168-.7519-.223-1.1777-.055-.4258-.082-.8828-.082-1.3711v-.082c0-.5078.029-.9824.088-1.4238.058-.4414.14-.8457.246-1.2129.109-.4063.246-.7793.41-1.1192.164-.3437.336-.6425.516-.89645.121-.16407.244-.3125.369-.44532.129-.13281.256-.24609.381-.33984l-.229-.71484c-.195.10937-.4.25976-.615.45117-.215.1914-.428.42187-.639.6914-.215.26954-.42.57818-.615.92578-.191.3477-.361.7305-.51 1.1484-.148.4219-.267.879-.357 1.3711-.086.4922-.129 1.0176-.129 1.5762Zm9.158.7031V9.46875h-1.09v5.77145h1.09Zm-1.195 2.1914c0 .1797.055.3301.164.4512.113.1211.281.1817.504.1817.222 0 .39-.0606.504-.1817.117-.1211.176-.2715.176-.4512 0-.1875-.059-.3437-.176-.4687-.114-.125-.282-.1875-.504-.1875-.223 0-.391.0625-.504.1875-.109.125-.164.2812-.164.4687Zm9.176-8.29098V8.25h-2.321v11.5781h2.321v-.8906h-1.295V9.14062h1.295Zm4.763-.89062v.89062h1.301v9.79688h-1.301v.8906h2.327V8.25h-2.327Zm8.994 5.1738v-2.4902h-1.084v2.4902h-2.378v1.0782h2.378v2.6425h1.084V14.502h2.385v-1.0782h-2.385Zm7.864-4.28318V8.25h-2.321v11.5781h2.321v-.8906h-1.295V9.14062h1.295Zm4.763-.89062v.89062h1.301v9.79688h-1.301v.8906h2.327V8.25h-2.327Zm9.809 6.3457v-.0586c0-.5976-.047-1.1348-.141-1.6113-.089-.4805-.205-.9258-.345-1.336-.145-.4257-.313-.8086-.504-1.1484-.192-.3398-.397-.64843-.615-.92578-.211-.26953-.426-.5-.645-.6914-.219-.19141-.426-.3418-.621-.45117l-.229.66211c.129.10546.262.23437.399.38672.137.14843.269.32226.398.52148.168.25394.332.55274.492.89644.161.3399.297.7247.411 1.1543.078.3008.148.6661.211 1.0957.066.4297.099.9082.099 1.4356v.082c0 .4649-.025.9024-.076 1.3125-.047.4063-.115.7852-.205 1.1367-.086.3789-.197.7266-.334 1.043-.133.3203-.272.6074-.416.8613-.152.25-.313.4707-.481.6621-.168.1915-.334.3477-.498.4688l.229.6621c.195-.1094.4-.2598.615-.4512.219-.1875.436-.4179.651-.6914.21-.2695.412-.5781.603-.9258.195-.3437.367-.7265.516-1.1484.148-.418.265-.873.351-1.3652.09-.4922.135-1.0176.135-1.5762Zm7.049-5.45508V8.25h-2.32v11.5781h2.32v-.8906h-1.295V9.14062h1.295Zm6.551 4.28318v-2.4902h-1.084v2.4902h-2.379v1.0782h2.379v2.6425h1.084V14.502h2.384v-1.0782h-2.384Zm7.089 1.8164V9.46875h-1.089v5.77145h1.089Zm-1.195 2.1914c0 .1797.055.3301.164.4512.113.1211.281.1817.504.1817.223 0 .391-.0606.504-.1817.117-.1211.176-.2715.176-.4512 0-.1875-.059-.3437-.176-.4687-.113-.125-.281-.1875-.504-.1875-.223 0-.391.0625-.504.1875-.109.125-.164.2812-.164.4687Zm8.52-4.0078v-2.4902h-1.084v2.4902h-2.379v1.0782h2.379v2.6425h1.084V14.502h2.384v-1.0782h-2.384Zm7.863-4.28318V8.25h-2.32v11.5781h2.32v-.8906h-1.295V9.14062h1.295Zm4.764-.89062v.89062h1.3v9.79688h-1.3v.8906h2.326V8.25h-2.326Zm7.207 0v.89062h1.3v9.79688h-1.3v.8906h2.326V8.25h-2.326Zm8.994 5.1738v-2.4902h-1.084v2.4902h-2.379v1.0782h2.379v2.6425h1.084V14.502h2.385v-1.0782h-2.385Zm5.138 1.1133v.0586c0 .5586.043 1.084.129 1.5762.09.4922.209.9472.358 1.3652.144.4219.312.8047.504 1.1484.195.3477.4.6563.615.9258.211.2735.424.5039.639.6914.218.1914.425.3418.621.4512l.228-.6621c-.16-.1289-.32-.2852-.48-.4688-.156-.1796-.309-.3867-.457-.621-.145-.2461-.283-.5254-.416-.8379-.133-.3086-.25-.6446-.352-1.0079-.094-.3593-.168-.7519-.222-1.1777-.055-.4258-.083-.8828-.083-1.3711v-.082c0-.5078.03-.9824.088-1.4238.059-.4414.141-.8457.246-1.2129.11-.4063.247-.7793.411-1.1192.164-.3437.336-.6425.515-.89645.121-.16407.244-.3125.369-.44532.129-.13281.256-.24609.381-.33984l-.228-.71484c-.196.10937-.401.25976-.616.45117-.214.1914-.427.42187-.638.6914-.215.26954-.42.57818-.615.92578-.192.3477-.362.7305-.51 1.1484-.149.4219-.268.879-.358 1.3711-.086.4922-.129 1.0176-.129 1.5762Z"/>
  <path fill="url(#b)" d="M9.04297 31.2402v-5.7714H7.95312v5.7714h1.08985Zm-1.19531 2.1914c0 .1797.05468.3301.16406.4512.11328.1211.28125.1817.5039.1817.22266 0 .39063-.0606.50391-.1817.11719-.1211.17578-.2715.17578-.4512 0-.1875-.05859-.3437-.17578-.4687-.11328-.125-.28125-.1875-.50391-.1875-.22265 0-.39062.0625-.5039.1875-.10938.125-.16406.2812-.16406.4687ZM16.25 31.2402v-5.7714h-1.0898v5.7714H16.25Zm-1.1953 2.1914c0 .1797.0547.3301.1641.4512.1132.1211.2812.1817.5039.1817.2226 0 .3906-.0606.5039-.1817.1172-.1211.1757-.2715.1757-.4512 0-.1875-.0585-.3437-.1757-.4687-.1133-.125-.2813-.1875-.5039-.1875-.2227 0-.3907.0625-.5039.1875-.1094.125-.1641.2812-.1641.4687Zm9.1758-8.291V24.25h-2.3203v11.5781h2.3203v-.8906h-1.295v-9.7969h1.295Zm4.7636-.8906v.8906h1.3008v9.7969h-1.3008v.8906h2.3262V24.25h-2.3262Zm8.9942 5.1738v-2.4902h-1.084v2.4902h-2.3789v1.0782h2.3789v2.6425h1.084V30.502h2.3847v-1.0782h-2.3847Zm7.8633-4.2832V24.25h-2.3204v11.5781h2.3204v-.8906h-1.295v-9.7969h1.295Zm4.7636-.8906v.8906h1.3008v9.7969h-1.3008v.8906h2.3262V24.25h-2.3262Zm9.8086 6.3457v-.0586c0-.5976-.0468-1.1348-.1406-1.6113-.0898-.4805-.2051-.9258-.3457-1.336-.1445-.4257-.3125-.8086-.5039-1.1484-.1914-.3398-.3965-.6484-.6152-.9258-.211-.2695-.4258-.5-.6446-.6914-.2187-.1914-.4258-.3418-.6211-.4512l-.2285.6622c.1289.1054.2617.2343.3985.3867.1367.1484.2695.3222.3984.5215.168.2539.332.5527.4922.8964.1601.3399.2969.7247.4101 1.1543.0782.3008.1485.6661.211 1.0957.0664.4297.0996.9082.0996 1.4356v.082c0 .4649-.0254.9024-.0762 1.3125-.0469.4063-.1152.7852-.2051 1.1367-.0859.3789-.1972.7266-.3339 1.043-.1329.3203-.2715.6074-.4161.8613-.1523.25-.3125.4707-.4804.6621-.168.1915-.334.3477-.4981.4688l.2285.6621c.1953-.1094.4004-.2598.6153-.4512.2187-.1875.4355-.4179.6504-.6914.2109-.2695.4121-.5781.6035-.9258.1953-.3437.3672-.7265.5156-1.1484.1484-.418.2656-.873.3516-1.3652.0898-.4922.1347-1.0176.1347-1.5762Zm7.0489-5.4551V24.25h-2.3204v11.5781h2.3204v-.8906h-1.295v-9.7969h1.295Zm6.5507 4.2832v-2.4902h-1.0839v2.4902h-2.379v1.0782h2.379v2.6425h1.0839V30.502h2.3848v-1.0782h-2.3848Zm7.8633-4.2832V24.25h-2.3203v11.5781h2.3203v-.8906h-1.2949v-9.7969h1.2949Zm4.7637-.8906v.8906h1.3008v9.7969h-1.3008v.8906h2.3262V24.25h-2.3262Zm7.207 0v.8906h1.3008v9.7969h-1.3008v.8906h2.3262V24.25h-2.3262Zm7.2066 0v.8906h1.301v9.7969h-1.301v.8906h2.327V24.25h-2.327Zm8.995 5.1738v-2.4902h-1.084v2.4902h-2.379v1.0782h2.379v2.6425h1.084V30.502h2.384v-1.0782h-2.384Zm7.863-4.2832V24.25h-2.32v11.5781h2.32v-.8906h-1.295v-9.7969h1.295Zm4.764-.8906v.8906h1.3v9.7969h-1.3v.8906h2.326V24.25h-2.326Zm9.808 6.3457v-.0586c0-.5976-.047-1.1348-.14-1.6113-.09-.4805-.206-.9258-.346-1.336-.145-.4257-.313-.8086-.504-1.1484-.192-.3398-.397-.6484-.615-.9258-.211-.2695-.426-.5-.645-.6914-.219-.1914-.426-.3418-.621-.4512l-.228.6622c.128.1054.261.2343.398.3867.137.1484.269.3222.398.5215.168.2539.332.5527.493.8964.16.3399.296.7247.41 1.1543.078.3008.148.6661.211 1.0957.066.4297.099.9082.099 1.4356v.082c0 .4649-.025.9024-.076 1.3125-.047.4063-.115.7852-.205 1.1367-.086.3789-.197.7266-.334 1.043-.133.3203-.271.6074-.416.8613-.152.25-.312.4707-.48.6621-.168.1915-.334.3477-.498.4688l.228.6621c.195-.1094.4-.2598.615-.4512.219-.1875.436-.4179.651-.6914.211-.2695.412-.5781.603-.9258.196-.3437.367-.7265.516-1.1484.148-.418.265-.873.351-1.3652.09-.4922.135-1.0176.135-1.5762Zm7.049-5.4551V24.25h-2.32v11.5781h2.32v-.8906h-1.295v-9.7969h1.295Zm6.434 6.0996v-5.7714h-1.09v5.7714h1.09Zm-1.196 2.1914c0 .1797.055.3301.164.4512.114.1211.282.1817.504.1817.223 0 .391-.0606.504-.1817.117-.1211.176-.2715.176-.4512 0-.1875-.059-.3437-.176-.4687-.113-.125-.281-.1875-.504-.1875-.222 0-.39.0625-.504.1875-.109.125-.164.2812-.164.4687Zm8.52-4.0078v-2.4902h-1.084v2.4902h-2.379v1.0782h2.379v2.6425h1.084V30.502h2.385v-1.0782h-2.385Zm7.863-4.2832V24.25h-2.32v11.5781h2.32v-.8906h-1.295v-9.7969h1.295Zm4.764-.8906v.8906h1.301v9.7969h-1.301v.8906h2.326V24.25h-2.326Zm8.994 5.1738v-2.4902h-1.084v2.4902h-2.379v1.0782h2.379v2.6425h1.084V30.502h2.385v-1.0782h-2.385Zm7.09 1.8164v-5.7714h-1.09v5.7714h1.09Zm-1.196 2.1914c0 .1797.055.3301.164.4512.114.1211.282.1817.504.1817.223 0 .391-.0606.504-.1817.117-.1211.176-.2715.176-.4512 0-.1875-.059-.3437-.176-.4687-.113-.125-.281-.1875-.504-.1875-.222 0-.39.0625-.504.1875-.109.125-.164.2812-.164.4687Zm8.52-4.0078v-2.4902h-1.084v2.4902h-2.379v1.0782h2.379v2.6425h1.084V30.502h2.385v-1.0782h-2.385Zm7.863-4.2832V24.25h-2.32v11.5781h2.32v-.8906h-1.295v-9.7969h1.295Zm4.764-.8906v.8906h1.301v9.7969h-1.301v.8906h2.326V24.25h-2.326Zm8.994 5.1738v-2.4902h-1.084v2.4902h-2.379v1.0782h2.379v2.6425h1.084V30.502h2.385v-1.0782h-2.385Zm7.09 1.8164v-5.7714h-1.09v5.7714h1.09Zm-1.195 2.1914c0 .1797.054.3301.164.4512.113.1211.281.1817.504.1817.222 0 .39-.0606.503-.1817.118-.1211.176-.2715.176-.4512 0-.1875-.058-.3437-.176-.4687-.113-.125-.281-.1875-.503-.1875-.223 0-.391.0625-.504.1875-.11.125-.164.2812-.164.4687Zm8.519-4.0078v-2.4902h-1.084v2.4902h-2.379v1.0782h2.379v2.6425h1.084V30.502h2.385v-1.0782h-2.385Zm7.863-4.2832V24.25h-2.32v11.5781h2.32v-.8906h-1.295v-9.7969h1.295Zm4.764-.8906v.8906h1.301v9.7969h-1.301v.8906h2.326V24.25h-2.326Zm7.207 0v.8906h1.301v9.7969h-1.301v.8906h2.326V24.25h-2.326Zm8.994 5.1738v-2.4902h-1.084v2.4902h-2.379v1.0782h2.379v2.6425h1.084V30.502h2.385v-1.0782h-2.385Zm5.139 1.1133v.0586c0 .5586.043 1.084.129 1.5762.09.4922.209.9472.357 1.3652.145.4219.313.8047.504 1.1484.195.3477.401.6563.615.9258.211.2735.424.5039.639.6914.219.1914.426.3418.621.4512l.229-.6621c-.161-.1289-.321-.2852-.481-.4688-.156-.1796-.308-.3867-.457-.621-.144-.2461-.283-.5254-.416-.8379-.133-.3086-.25-.6446-.351-1.0079-.094-.3593-.168-.7519-.223-1.1777-.055-.4258-.082-.8828-.082-1.3711v-.082c0-.5078.029-.9824.088-1.4238.058-.4414.14-.8457.246-1.2129.109-.4063.246-.7793.41-1.1192.164-.3437.336-.6425.516-.8965.121-.164.244-.3125.369-.4453.129-.1328.256-.2461.381-.3398l-.229-.7149c-.195.1094-.4.2598-.615.4512-.215.1914-.428.4219-.639.6914-.215.2696-.42.5782-.615.9258-.191.3477-.361.7305-.51 1.1484-.148.4219-.267.879-.357 1.3711-.086.4922-.129 1.0176-.129 1.5762Zm9.158.7031v-5.7714h-1.09v5.7714h1.09Zm-1.195 2.1914c0 .1797.054.3301.164.4512.113.1211.281.1817.504.1817.222 0 .39-.0606.504-.1817.117-.1211.175-.2715.175-.4512 0-.1875-.058-.3437-.175-.4687-.114-.125-.282-.1875-.504-.1875-.223 0-.391.0625-.504.1875-.11.125-.164.2812-.164.4687Zm8.402-2.1914v-5.7714h-1.09v5.7714h1.09Zm-1.195 2.1914c0 .1797.054.3301.164.4512.113.1211.281.1817.504.1817.222 0 .39-.0606.504-.1817.117-.1211.175-.2715.175-.4512 0-.1875-.058-.3437-.175-.4687-.114-.125-.282-.1875-.504-.1875-.223 0-.391.0625-.504.1875-.11.125-.164.2812-.164.4687Zm9.176-8.291V24.25h-2.321v11.5781h2.321v-.8906h-1.295v-9.7969h1.295Zm4.763-.8906v.8906h1.301v9.7969h-1.301v.8906h2.326V24.25h-2.326Zm8.994 5.1738v-2.4902h-1.084v2.4902h-2.378v1.0782h2.378v2.6425h1.084V30.502h2.385v-1.0782h-2.385Zm7.864-4.2832V24.25h-2.321v11.5781h2.321v-.8906h-1.295v-9.7969h1.295Zm4.763-.8906v.8906h1.301v9.7969h-1.301v.8906h2.327V24.25h-2.327Zm9.651.8906V24.25h-2.321v11.5781h2.321v-.8906h-1.295v-9.7969h1.295Zm4.482 5.3965v.0586c0 .5586.043 1.084.129 1.5762.09.4922.209.9472.358 1.3652.144.4219.312.8047.503 1.1484.196.3477.401.6563.616.9258.211.2735.423.5039.638.6914.219.1914.426.3418.621.4512l.229-.6621c-.16-.1289-.32-.2852-.481-.4688-.156-.1796-.308-.3867-.457-.621-.144-.2461-.283-.5254-.416-.8379-.132-.3086-.25-.6446-.351-1.0079-.094-.3593-.168-.7519-.223-1.1777-.055-.4258-.082-.8828-.082-1.3711v-.082c0-.5078.029-.9824.088-1.4238.059-.4414.141-.8457.246-1.2129.11-.4063.246-.7793.41-1.1192.164-.3437.336-.6425.516-.8965.121-.164.244-.3125.369-.4453.129-.1328.256-.2461.381-.3398l-.229-.7149c-.195.1094-.4.2598-.615.4512-.215.1914-.428.4219-.639.6914-.214.2696-.419.5782-.615.9258-.191.3477-.361.7305-.509 1.1484-.149.4219-.268.879-.358 1.3711-.086.4922-.129 1.0176-.129 1.5762Zm9.158.7031v-5.7714h-1.089v5.7714h1.089Zm-1.195 2.1914c0 .1797.055.3301.164.4512.113.1211.281.1817.504.1817.223 0 .391-.0606.504-.1817.117-.1211.176-.2715.176-.4512 0-.1875-.059-.3437-.176-.4687-.113-.125-.281-.1875-.504-.1875-.223 0-.391.0625-.504.1875-.109.125-.164.2812-.164.4687Zm9.176-8.291V24.25h-2.32v11.5781h2.32v-.8906h-1.295v-9.7969h1.295Zm4.764-.8906v.8906h1.3v9.7969h-1.3v.8906h2.326V24.25h-2.326Zm8.994 5.1738v-2.4902h-1.084v2.4902h-2.379v1.0782h2.379v2.6425h1.084V30.502h2.384v-1.0782h-2.384Zm7.863-4.2832V24.25h-2.32v11.5781h2.32v-.8906h-1.295v-9.7969h1.295Zm4.764-.8906v.8906h1.3v9.7969h-1.3v.8906h2.326V24.25h-2.326Zm9.808 6.3457v-.0586c0-.5976-.047-1.1348-.14-1.6113-.09-.4805-.205-.9258-.346-1.336-.145-.4257-.313-.8086-.504-1.1484-.191-.3398-.397-.6484-.615-.9258-.211-.2695-.426-.5-.645-.6914-.219-.1914-.426-.3418-.621-.4512l-.228.6622c.128.1054.261.2343.398.3867.137.1484.27.3222.398.5215.168.2539.332.5527.493.8964.16.3399.297.7247.41 1.1543.078.3008.148.6661.211 1.0957.066.4297.099.9082.099 1.4356v.082c0 .4649-.025.9024-.076 1.3125-.047.4063-.115.7852-.205 1.1367-.086.3789-.197.7266-.334 1.043-.133.3203-.271.6074-.416.8613-.152.25-.312.4707-.48.6621-.168.1915-.334.3477-.498.4688l.228.6621c.195-.1094.4-.2598.615-.4512.219-.1875.436-.4179.651-.6914.211-.2695.412-.5781.603-.9258.196-.3437.367-.7265.516-1.1484.148-.418.265-.873.351-1.3652.09-.4922.135-1.0176.135-1.5762Zm7.049-5.4551V24.25h-2.32v11.5781h2.32v-.8906h-1.295v-9.7969h1.295Zm6.551 4.2832v-2.4902h-1.084v2.4902h-2.379v1.0782h2.379v2.6425h1.084V30.502h2.385v-1.0782h-2.385Zm7.863-4.2832V24.25h-2.32v11.5781h2.32v-.8906h-1.295v-9.7969h1.295Z"/>
  <path fill="url(#c)" d="M7.37305 40.25v.8906h1.30078v9.7969H7.37305v.8906h2.32617V40.25H7.37305Zm7.20705 0v.8906h1.3008v9.7969h-1.3008v.8906h2.3261V40.25h-2.3261Zm8.9941 5.1738v-2.4902h-1.084v2.4902h-2.3789v1.0782h2.3789v2.6425h1.084V46.502h2.3848v-1.0782h-2.3848Zm5.1387 1.1133v.0586c0 .5586.043 1.084.1289 1.5762.0898.4922.209.9472.3574 1.3652.1446.4219.3125.8047.5039 1.1484.1953.3477.4004.6563.6153.9258.2109.2735.4238.5039.6386.6914.2188.1914.4258.3418.6211.4512l.2285-.6621c-.1601-.1289-.3203-.2852-.4804-.4688-.1563-.1796-.3086-.3867-.4571-.621-.1445-.2461-.2832-.5254-.416-.8379-.1328-.3086-.25-.6446-.3515-1.0079-.0938-.3593-.168-.7519-.2227-1.1777-.0547-.4258-.082-.8828-.082-1.3711v-.082c0-.5078.0293-.9824.0879-1.4238.0586-.4414.1406-.8457.2461-1.2129.1093-.4063.2461-.7793.4101-1.1192.1641-.3437.336-.6425.5156-.8965.1211-.164.2442-.3125.3692-.4453.1289-.1328.2558-.2461.3808-.3398l-.2285-.7149c-.1953.1094-.4004.2598-.6152.4512-.2149.1914-.4277.4219-.6387.6914-.2148.2696-.4199.5782-.6152.9258-.1914.3477-.3613.7305-.5098 1.1484-.1484.4219-.2676.879-.3574 1.3711-.0859.4922-.1289 1.0176-.1289 1.5762Zm9.1582.7031v-5.7714h-1.0899v5.7714h1.0899Zm-1.1953 2.1914c0 .1797.0547.3301.164.4512.1133.1211.2813.1817.504.1817.2226 0 .3906-.0606.5039-.1817.1171-.1211.1757-.2715.1757-.4512 0-.1875-.0586-.3437-.1757-.4687-.1133-.125-.2813-.1875-.5039-.1875-.2227 0-.3907.0625-.504.1875-.1093.125-.164.2812-.164.4687Zm9.1758-8.291V40.25h-2.3204v11.5781h2.3204v-.8906h-1.295v-9.7969h1.295Zm4.7636-.8906v.8906h1.3008v9.7969h-1.3008v.8906h2.3262V40.25h-2.3262Zm8.9942 5.1738v-2.4902h-1.084v2.4902h-2.3789v1.0782h2.3789v2.6425h1.084V46.502h2.3847v-1.0782h-2.3847Zm7.8633-4.2832V40.25h-2.3204v11.5781h2.3204v-.8906h-1.295v-9.7969h1.295Zm4.7636-.8906v.8906h1.3008v9.7969h-1.3008v.8906h2.3262V40.25h-2.3262Zm9.8086 6.3457v-.0586c0-.5976-.0469-1.1348-.1406-1.6113-.0898-.4805-.2051-.9258-.3457-1.336-.1445-.4257-.3125-.8086-.5039-1.1484-.1914-.3398-.3965-.6484-.6152-.9258-.211-.2695-.4258-.5-.6446-.6914-.2187-.1914-.4258-.3418-.6211-.4512l-.2285.6622c.1289.1054.2617.2343.3985.3867.1367.1484.2695.3222.3984.5215.168.2539.332.5527.4922.8964.1601.3399.2968.7247.4101 1.1543.0782.3008.1485.6661.211 1.0957.0664.4297.0996.9082.0996 1.4356v.082c0 .4649-.0254.9024-.0762 1.3125-.0469.4063-.1152.7852-.2051 1.1367-.0859.3789-.1972.7266-.334 1.043-.1328.3203-.2714.6074-.416.8613-.1523.25-.3125.4707-.4804.6621-.168.1915-.334.3477-.4981.4688l.2285.6621c.1953-.1094.4004-.2598.6153-.4512.2187-.1875.4355-.4179.6504-.6914.2109-.2695.4121-.5781.6035-.9258.1953-.3437.3672-.7265.5156-1.1484.1484-.418.2656-.873.3516-1.3652.0898-.4922.1347-1.0176.1347-1.5762Zm7.0489-5.4551V40.25h-2.3204v11.5781h2.3204v-.8906h-1.295v-9.7969h1.295Zm6.4335 6.0996v-5.7714h-1.0898v5.7714h1.0898Zm-1.1953 2.1914c0 .1797.0547.3301.1641.4512.1133.1211.2812.1817.5039.1817s.3906-.0606.5039-.1817c.1172-.1211.1758-.2715.1758-.4512 0-.1875-.0586-.3437-.1758-.4687-.1133-.125-.2812-.1875-.5039-.1875s-.3906.0625-.5039.1875c-.1094.125-.1641.2812-.1641.4687Zm8.52-4.0078v-2.4902h-1.084v2.4902h-2.3793v1.0782h2.3793v2.6425h1.084V46.502h2.384v-1.0782h-2.384Zm7.863-4.2832V40.25h-2.32v11.5781h2.32v-.8906h-1.295v-9.7969h1.295Zm4.764-.8906v.8906h1.3v9.7969h-1.3v.8906h2.326V40.25h-2.326Zm8.994 5.1738v-2.4902h-1.084v2.4902h-2.379v1.0782h2.379v2.6425h1.084V46.502h2.384v-1.0782h-2.384Zm7.089 1.8164v-5.7714h-1.089v5.7714h1.089Zm-1.195 2.1914c0 .1797.055.3301.164.4512.114.1211.281.1817.504.1817.223 0 .391-.0606.504-.1817.117-.1211.176-.2715.176-.4512 0-.1875-.059-.3437-.176-.4687-.113-.125-.281-.1875-.504-.1875-.223 0-.39.0625-.504.1875-.109.125-.164.2812-.164.4687Zm8.52-4.0078v-2.4902h-1.084v2.4902h-2.379v1.0782h2.379v2.6425h1.084V46.502h2.384v-1.0782h-2.384Zm7.863-4.2832V40.25h-2.32v11.5781h2.32v-.8906h-1.295v-9.7969h1.295Zm4.764-.8906v.8906h1.3v9.7969h-1.3v.8906h2.326V40.25h-2.326Zm7.207 0v.8906h1.3v9.7969h-1.3v.8906h2.326V40.25h-2.326Zm8.994 5.1738v-2.4902h-1.084v2.4902h-2.379v1.0782h2.379v2.6425h1.084V46.502h2.385v-1.0782h-2.385Zm5.139 1.1133v.0586c0 .5586.042 1.084.128 1.5762.09.4922.209.9472.358 1.3652.144.4219.312.8047.504 1.1484.195.3477.4.6563.615.9258.211.2735.424.5039.639.6914.218.1914.425.3418.621.4512l.228-.6621c-.16-.1289-.32-.2852-.48-.4688-.156-.1796-.309-.3867-.457-.621-.145-.2461-.283-.5254-.416-.8379-.133-.3086-.25-.6446-.352-1.0079-.094-.3593-.168-.7519-.222-1.1777-.055-.4258-.082-.8828-.082-1.3711v-.082c0-.5078.029-.9824.087-1.4238.059-.4414.141-.8457.246-1.2129.11-.4063.247-.7793.411-1.1192.164-.3437.336-.6425.515-.8965.121-.164.244-.3125.369-.4453.129-.1328.256-.2461.381-.3398l-.228-.7149c-.196.1094-.401.2598-.615.4512-.215.1914-.428.4219-.639.6914-.215.2696-.42.5782-.615.9258-.192.3477-.362.7305-.51 1.1484-.149.4219-.268.879-.358 1.3711-.086.4922-.128 1.0176-.128 1.5762Zm9.158.7031v-5.7714h-1.09v5.7714h1.09Zm-1.196 2.1914c0 .1797.055.3301.164.4512.114.1211.282.1817.504.1817.223 0 .391-.0606.504-.1817.117-.1211.176-.2715.176-.4512 0-.1875-.059-.3437-.176-.4687-.113-.125-.281-.1875-.504-.1875-.222 0-.39.0625-.504.1875-.109.125-.164.2812-.164.4687Zm9.176-8.291V40.25h-2.32v11.5781h2.32v-.8906h-1.295v-9.7969h1.295Zm4.764-.8906v.8906h1.301v9.7969h-1.301v.8906h2.326V40.25h-2.326Zm8.994 5.1738v-2.4902h-1.084v2.4902h-2.379v1.0782h2.379v2.6425h1.084V46.502h2.385v-1.0782h-2.385Zm7.863-4.2832V40.25h-2.32v11.5781h2.32v-.8906h-1.295v-9.7969h1.295Zm4.764-.8906v.8906h1.301v9.7969h-1.301v.8906h2.326V40.25h-2.326Zm9.809 6.3457v-.0586c0-.5976-.047-1.1348-.141-1.6113-.09-.4805-.205-.9258-.346-1.336-.144-.4257-.312-.8086-.504-1.1484-.191-.3398-.396-.6484-.615-.9258-.211-.2695-.426-.5-.644-.6914-.219-.1914-.426-.3418-.622-.4512l-.228.6622c.129.1054.262.2343.398.3867.137.1484.27.3222.399.5215.168.2539.332.5527.492.8964.16.3399.297.7247.41 1.1543.078.3008.149.6661.211 1.0957.066.4297.1.9082.1 1.4356v.082c0 .4649-.026.9024-.076 1.3125-.047.4063-.116.7852-.206 1.1367-.085.3789-.197.7266-.334 1.043-.132.3203-.271.6074-.416.8613-.152.25-.312.4707-.48.6621-.168.1915-.334.3477-.498.4688l.228.6621c.196-.1094.401-.2598.616-.4512.218-.1875.435-.4179.65-.6914.211-.2695.412-.5781.604-.9258.195-.3437.367-.7265.515-1.1484.149-.418.266-.873.352-1.3652.09-.4922.135-1.0176.135-1.5762Zm7.048-5.4551V40.25h-2.32v11.5781h2.32v-.8906h-1.295v-9.7969h1.295Zm6.551 4.2832v-2.4902h-1.084v2.4902h-2.379v1.0782h2.379v2.6425h1.084V46.502h2.385v-1.0782h-2.385Zm7.09 1.8164v-5.7714h-1.09v5.7714h1.09Zm-1.195 2.1914c0 .1797.054.3301.164.4512.113.1211.281.1817.504.1817.222 0 .39-.0606.504-.1817.117-.1211.175-.2715.175-.4512 0-.1875-.058-.3437-.175-.4687-.114-.125-.282-.1875-.504-.1875-.223 0-.391.0625-.504.1875-.11.125-.164.2812-.164.4687Zm8.519-4.0078v-2.4902h-1.084v2.4902h-2.379v1.0782h2.379v2.6425h1.084V46.502h2.385v-1.0782h-2.385Zm7.863-4.2832V40.25h-2.32v11.5781h2.32v-.8906h-1.294v-9.7969h1.294Zm4.764-.8906v.8906h1.301v9.7969h-1.301v.8906h2.326V40.25h-2.326Zm7.207 0v.8906h1.301v9.7969h-1.301v.8906h2.326V40.25h-2.326Zm8.994 5.1738v-2.4902h-1.084v2.4902h-2.379v1.0782h2.379v2.6425h1.084V46.502h2.385v-1.0782h-2.385Zm5.139 1.1133v.0586c0 .5586.043 1.084.129 1.5762.09.4922.209.9472.357 1.3652.145.4219.313.8047.504 1.1484.196.3477.401.6563.615.9258.211.2735.424.5039.639.6914.219.1914.426.3418.621.4512l.229-.6621c-.16-.1289-.321-.2852-.481-.4688-.156-.1796-.308-.3867-.457-.621-.144-.2461-.283-.5254-.416-.8379-.133-.3086-.25-.6446-.351-1.0079-.094-.3593-.168-.7519-.223-1.1777-.055-.4258-.082-.8828-.082-1.3711v-.082c0-.5078.029-.9824.088-1.4238.058-.4414.141-.8457.246-1.2129.109-.4063.246-.7793.41-1.1192.164-.3437.336-.6425.516-.8965.121-.164.244-.3125.369-.4453.129-.1328.256-.2461.381-.3398l-.229-.7149c-.195.1094-.4.2598-.615.4512-.215.1914-.428.4219-.639.6914-.215.2696-.42.5782-.615.9258-.191.3477-.361.7305-.51 1.1484-.148.4219-.267.879-.357 1.3711-.086.4922-.129 1.0176-.129 1.5762Zm9.158.7031v-5.7714h-1.09v5.7714h1.09Zm-1.195 2.1914c0 .1797.055.3301.164.4512.113.1211.281.1817.504.1817.223 0 .391-.0606.504-.1817.117-.1211.176-.2715.176-.4512 0-.1875-.059-.3437-.176-.4687-.113-.125-.281-.1875-.504-.1875-.223 0-.391.0625-.504.1875-.109.125-.164.2812-.164.4687Zm8.402-2.1914v-5.7714h-1.09v5.7714h1.09Zm-1.195 2.1914c0 .1797.055.3301.164.4512.113.1211.281.1817.504.1817.223 0 .391-.0606.504-.1817.117-.1211.176-.2715.176-.4512 0-.1875-.059-.3437-.176-.4687-.113-.125-.281-.1875-.504-.1875-.223 0-.391.0625-.504.1875-.109.125-.164.2812-.164.4687Zm9.176-8.291V40.25h-2.321v11.5781h2.321v-.8906h-1.295v-9.7969h1.295Zm4.763-.8906v.8906h1.301v9.7969h-1.301v.8906h2.327V40.25h-2.327Zm8.995 5.1738v-2.4902h-1.084v2.4902h-2.379v1.0782h2.379v2.6425h1.084V46.502h2.384v-1.0782h-2.384Zm7.863-4.2832V40.25h-2.321v11.5781h2.321v-.8906h-1.295v-9.7969h1.295Zm4.763-.8906v.8906h1.301v9.7969h-1.301v.8906h2.327V40.25h-2.327Zm9.809 6.3457v-.0586c0-.5976-.047-1.1348-.141-1.6113-.089-.4805-.205-.9258-.345-1.336-.145-.4257-.313-.8086-.504-1.1484-.192-.3398-.397-.6484-.615-.9258-.211-.2695-.426-.5-.645-.6914-.219-.1914-.426-.3418-.621-.4512l-.229.6622c.129.1054.262.2343.399.3867.137.1484.269.3222.398.5215.168.2539.332.5527.493.8964.16.3399.296.7247.41 1.1543.078.3008.148.6661.211 1.0957.066.4297.099.9082.099 1.4356v.082c0 .4649-.025.9024-.076 1.3125-.047.4063-.115.7852-.205 1.1367-.086.3789-.197.7266-.334 1.043-.133.3203-.271.6074-.416.8613-.152.25-.313.4707-.48.6621-.168.1915-.334.3477-.499.4688l.229.6621c.195-.1094.4-.2598.615-.4512.219-.1875.436-.4179.651-.6914.211-.2695.412-.5781.603-.9258.195-.3437.367-.7265.516-1.1484.148-.418.265-.873.351-1.3652.09-.4922.135-1.0176.135-1.5762Zm7.049-5.4551V40.25h-2.32v11.5781h2.32v-.8906h-1.295v-9.7969h1.295Zm6.551 4.2832v-2.4902h-1.084v2.4902h-2.379v1.0782h2.379v2.6425h1.084V46.502h2.384v-1.0782h-2.384Zm7.863-4.2832V40.25h-2.32v11.5781h2.32v-.8906h-1.295v-9.7969h1.295Zm4.764-.8906v.8906h1.3v9.7969h-1.3v.8906h2.326V40.25h-2.326Zm7.207 0v.8906h1.3v9.7969h-1.3v.8906h2.326V40.25h-2.326Zm7.207 0v.8906h1.3v9.7969h-1.3v.8906h2.326V40.25h-2.326Zm9.808 6.3457v-.0586c0-.5976-.047-1.1348-.14-1.6113-.09-.4805-.205-.9258-.346-1.336-.145-.4257-.313-.8086-.504-1.1484-.191-.3398-.396-.6484-.615-.9258-.211-.2695-.426-.5-.645-.6914-.218-.1914-.425-.3418-.621-.4512l-.228.6622c.129.1054.261.2343.398.3867.137.1484.27.3222.399.5215.168.2539.332.5527.492.8964.16.3399.297.7247.41 1.1543.078.3008.148.6661.211 1.0957.066.4297.099.9082.099 1.4356v.082c0 .4649-.025.9024-.076 1.3125-.047.4063-.115.7852-.205 1.1367-.086.3789-.197.7266-.334 1.043-.133.3203-.271.6074-.416.8613-.152.25-.312.4707-.48.6621-.168.1915-.334.3477-.498.4688l.228.6621c.196-.1094.401-.2598.615-.4512.219-.1875.436-.4179.651-.6914.211-.2695.412-.5781.603-.9258.196-.3437.368-.7265.516-1.1484.148-.418.266-.873.352-1.3652.089-.4922.134-1.0176.134-1.5762Z"/>
  <path fill="url(#d)" d="M9.81641 57.1406V56.25H7.49609v11.5781h2.32032v-.8906H8.52148v-9.7969h1.29493Zm6.55079 4.2832v-2.4902h-1.084v2.4902h-2.3789v1.0782h2.3789v2.6425h1.084V62.502h2.3848v-1.0782h-2.3848Zm7.0898 1.8164v-5.7714h-1.0898v5.7714h1.0898Zm-1.1953 2.1914c0 .1797.0547.3301.1641.4512.1133.1211.2812.1817.5039.1817.2226 0 .3906-.0606.5039-.1817.1172-.1211.1758-.2715.1758-.4512 0-.1875-.0586-.3437-.1758-.4687-.1133-.125-.2813-.1875-.5039-.1875-.2227 0-.3906.0625-.5039.1875-.1094.125-.1641.2812-.1641.4687Zm8.5195-4.0078v-2.4902h-1.0839v2.4902h-2.3789v1.0782h2.3789v2.6425h1.0839V62.502h2.3848v-1.0782h-2.3848Zm7.8633-4.2832V56.25h-2.3203v11.5781h2.3203v-.8906h-1.2949v-9.7969h1.2949Zm4.7637-.8906v.8906h1.3008v9.7969h-1.3008v.8906h2.3262V56.25h-2.3262Zm8.9941 5.1738v-2.4902h-1.0839v2.4902h-2.3789v1.0782h2.3789v2.6425h1.0839V62.502h2.3848v-1.0782h-2.3848Zm7.8633-4.2832V56.25h-2.3203v11.5781h2.3203v-.8906h-1.2949v-9.7969h1.2949Zm6.5508 4.2832v-2.4902h-1.084v2.4902h-2.3789v1.0782h2.3789v2.6425h1.084V62.502h2.3848v-1.0782h-2.3848Zm7.8633-4.2832V56.25h-2.3203v11.5781h2.3203v-.8906h-1.2949v-9.7969h1.2949Zm4.7637-.8906v.8906h1.3007v9.7969h-1.3007v.8906h2.3261V56.25h-2.3261Zm7.207 0v.8906h1.3008v9.7969h-1.3008v.8906h2.3262V56.25h-2.3262Zm7.207 0v.8906h1.3008v9.7969h-1.3008v.8906h2.3262V56.25h-2.3262Zm8.9946 5.1738v-2.4902h-1.084v2.4902h-2.3793v1.0782h2.3793v2.6425h1.084V62.502h2.384v-1.0782h-2.384Zm5.138 1.1133v.0586c0 .5586.043 1.084.129 1.5762.09.4922.209.9472.358 1.3652.144.4219.312.8047.503 1.1484.196.3477.401.6563.616.9258.211.2735.424.5039.638.6914.219.1914.426.3418.621.4512l.229-.6621c-.16-.1289-.32-.2852-.48-.4688-.157-.1796-.309-.3867-.458-.621-.144-.2461-.283-.5254-.416-.8379-.132-.3086-.25-.6446-.351-1.0079-.094-.3593-.168-.7519-.223-1.1777-.054-.4258-.082-.8828-.082-1.3711v-.082c0-.5078.03-.9824.088-1.4238.059-.4414.141-.8457.246-1.2129.11-.4063.246-.7793.41-1.1192.164-.3437.336-.6425.516-.8965.121-.164.244-.3125.369-.4453.129-.1328.256-.2461.381-.3398l-.229-.7149c-.195.1094-.4.2598-.615.4512-.215.1914-.428.4219-.638.6914-.215.2696-.42.5782-.616.9258-.191.3477-.361.7305-.509 1.1484-.149.4219-.268.879-.358 1.3711-.086.4922-.129 1.0176-.129 1.5762Zm9.932-5.3965V56.25h-2.32v11.5781h2.32v-.8906h-1.295v-9.7969h1.295Zm4.764-.8906v.8906h1.3v9.7969h-1.3v.8906h2.326V56.25h-2.326Zm9.65.8906V56.25h-2.32v11.5781h2.32v-.8906h-1.295v-9.7969h1.295Zm7.207 0V56.25h-2.32v11.5781h2.32v-.8906h-1.295v-9.7969h1.295Zm4.764-.8906v.8906h1.3v9.7969h-1.3v.8906h2.326V56.25h-2.326Zm7.207 0v.8906h1.3v9.7969h-1.3v.8906h2.326V56.25h-2.326Zm8.994 5.1738v-2.4902h-1.084v2.4902h-2.379v1.0782h2.379v2.6425h1.084V62.502h2.385v-1.0782h-2.385Zm7.863-4.2832V56.25h-2.32v11.5781h2.32v-.8906h-1.295v-9.7969h1.295Zm4.764-.8906v.8906h1.301v9.7969h-1.301v.8906h2.326V56.25h-2.326Zm9.808 6.3457v-.0586c0-.5976-.047-1.1348-.14-1.6113-.09-.4805-.205-.9258-.346-1.336-.145-.4257-.312-.8086-.504-1.1484-.191-.3398-.396-.6484-.615-.9258-.211-.2695-.426-.5-.645-.6914-.218-.1914-.425-.3418-.621-.4512l-.228.6622c.129.1054.261.2343.398.3867.137.1484.27.3222.399.5215.168.2539.332.5527.492.8964.16.3399.297.7247.41 1.1543.078.3008.148.6661.211 1.0957.066.4297.1.9082.1 1.4356v.082c0 .4649-.026.9024-.077 1.3125-.047.4063-.115.7852-.205 1.1367-.086.3789-.197.7266-.334 1.043-.133.3203-.271.6074-.416.8613-.152.25-.312.4707-.48.6621-.168.1915-.334.3477-.498.4688l.228.6621c.196-.1094.401-.2598.616-.4512.218-.1875.435-.4179.65-.6914.211-.2695.412-.5781.603-.9258.196-.3437.368-.7265.516-1.1484.148-.418.266-.873.352-1.3652.089-.4922.134-1.0176.134-1.5762Zm7.049-5.4551V56.25h-2.32v11.5781h2.32v-.8906h-1.295v-9.7969h1.295Zm6.434 6.0996v-5.7714h-1.09v5.7714h1.09Zm-1.196 2.1914c0 .1797.055.3301.165.4512.113.1211.281.1817.503.1817.223 0 .391-.0606.504-.1817.118-.1211.176-.2715.176-.4512 0-.1875-.058-.3437-.176-.4687-.113-.125-.281-.1875-.504-.1875-.222 0-.39.0625-.503.1875-.11.125-.165.2812-.165.4687Zm8.52-4.0078v-2.4902h-1.084v2.4902h-2.379v1.0782h2.379v2.6425h1.084V62.502h2.385v-1.0782h-2.385Zm7.863-4.2832V56.25h-2.32v11.5781h2.32v-.8906h-1.295v-9.7969h1.295Zm4.764-.8906v.8906h1.301v9.7969h-1.301v.8906h2.326V56.25h-2.326Zm8.994 5.1738v-2.4902h-1.084v2.4902h-2.379v1.0782h2.379v2.6425h1.084V62.502h2.385v-1.0782h-2.385Zm7.09 1.8164v-5.7714h-1.09v5.7714h1.09Zm-1.195 2.1914c0 .1797.054.3301.164.4512.113.1211.281.1817.504.1817.222 0 .39-.0606.504-.1817.117-.1211.175-.2715.175-.4512 0-.1875-.058-.3437-.175-.4687-.114-.125-.282-.1875-.504-.1875-.223 0-.391.0625-.504.1875-.11.125-.164.2812-.164.4687Zm8.519-4.0078v-2.4902h-1.084v2.4902h-2.379v1.0782h2.379v2.6425h1.084V62.502h2.385v-1.0782h-2.385Zm7.863-4.2832V56.25h-2.32v11.5781h2.32v-.8906h-1.294v-9.7969h1.294Zm4.764-.8906v.8906h1.301v9.7969h-1.301v.8906h2.326V56.25h-2.326Zm7.207 0v.8906h1.301v9.7969h-1.301v.8906h2.326V56.25h-2.326Zm8.994 5.1738v-2.4902h-1.084v2.4902h-2.379v1.0782h2.379v2.6425h1.084V62.502h2.385v-1.0782h-2.385Zm7.864-4.2832V56.25h-2.321v11.5781h2.321v-.8906h-1.295v-9.7969h1.295Zm6.433 6.0996v-5.7714h-1.09v5.7714h1.09Zm-1.195 2.1914c0 .1797.055.3301.164.4512.113.1211.281.1817.504.1817.222 0 .39-.0606.504-.1817.117-.1211.175-.2715.175-.4512 0-.1875-.058-.3437-.175-.4687-.114-.125-.282-.1875-.504-.1875-.223 0-.391.0625-.504.1875-.109.125-.164.2812-.164.4687Zm8.519-4.0078v-2.4902h-1.084v2.4902h-2.379v1.0782h2.379v2.6425h1.084V62.502h2.385v-1.0782h-2.385Zm7.864-4.2832V56.25h-2.321v11.5781h2.321v-.8906h-1.295v-9.7969h1.295Zm4.763-.8906v.8906h1.301v9.7969h-1.301v.8906h2.327V56.25h-2.327Zm8.994 5.1738v-2.4902h-1.084v2.4902h-2.378v1.0782h2.378v2.6425h1.084V62.502h2.385v-1.0782h-2.385Zm7.09 1.8164v-5.7714h-1.09v5.7714h1.09Zm-1.195 2.1914c0 .1797.055.3301.164.4512.113.1211.281.1817.504.1817.223 0 .391-.0606.504-.1817.117-.1211.176-.2715.176-.4512 0-.1875-.059-.3437-.176-.4687-.113-.125-.281-.1875-.504-.1875-.223 0-.391.0625-.504.1875-.109.125-.164.2812-.164.4687Zm8.52-4.0078v-2.4902h-1.084v2.4902h-2.379v1.0782h2.379v2.6425h1.084V62.502h2.384v-1.0782h-2.384Zm7.863-4.2832V56.25h-2.321v11.5781h2.321v-.8906h-1.295v-9.7969h1.295Zm4.763-.8906v.8906h1.301v9.7969h-1.301v.8906h2.327V56.25h-2.327Zm8.995 5.1738v-2.4902h-1.084v2.4902h-2.379v1.0782h2.379v2.6425h1.084V62.502h2.384v-1.0782h-2.384Zm7.089 1.8164v-5.7714h-1.089v5.7714h1.089Zm-1.195 2.1914c0 .1797.055.3301.164.4512.113.1211.281.1817.504.1817.223 0 .391-.0606.504-.1817.117-.1211.176-.2715.176-.4512 0-.1875-.059-.3437-.176-.4687-.113-.125-.281-.1875-.504-.1875-.223 0-.391.0625-.504.1875-.109.125-.164.2812-.164.4687Zm8.52-4.0078v-2.4902h-1.084v2.4902h-2.379v1.0782h2.379v2.6425h1.084V62.502h2.384v-1.0782h-2.384Zm7.863-4.2832V56.25h-2.32v11.5781h2.32v-.8906h-1.295v-9.7969h1.295Zm4.764-.8906v.8906h1.3v9.7969h-1.3v.8906h2.326V56.25h-2.326Zm7.207 0v.8906h1.3v9.7969h-1.3v.8906h2.326V56.25h-2.326Zm8.994 5.1738v-2.4902h-1.084v2.4902h-2.379v1.0782h2.379v2.6425h1.084V62.502h2.385v-1.0782h-2.385Zm5.138 1.1133v.0586c0 .5586.043 1.084.129 1.5762.09.4922.209.9472.358 1.3652.144.4219.312.8047.504 1.1484.195.3477.4.6563.615.9258.211.2735.424.5039.639.6914.218.1914.425.3418.621.4512l.228-.6621c-.16-.1289-.32-.2852-.48-.4688-.156-.1796-.309-.3867-.457-.621-.145-.2461-.283-.5254-.416-.8379-.133-.3086-.25-.6446-.352-1.0079-.094-.3593-.168-.7519-.222-1.1777-.055-.4258-.083-.8828-.083-1.3711v-.082c0-.5078.03-.9824.088-1.4238.059-.4414.141-.8457.246-1.2129.11-.4063.247-.7793.411-1.1192.164-.3437.336-.6425.515-.8965.121-.164.244-.3125.369-.4453.129-.1328.256-.2461.381-.3398l-.228-.7149c-.196.1094-.401.2598-.616.4512-.214.1914-.427.4219-.638.6914-.215.2696-.42.5782-.615.9258-.192.3477-.362.7305-.51 1.1484-.149.4219-.268.879-.358 1.3711-.086.4922-.129 1.0176-.129 1.5762Z"/>
  <path fill="url(#e)" d="M9.81641 73.1406V72.25H7.49609v11.5781h2.32032v-.8906H8.52148v-9.7969h1.29493Zm4.76369-.8906v.8906h1.3008v9.7969h-1.3008v.8906h2.3261V72.25h-2.3261Zm9.6504.8906V72.25h-2.3203v11.5781h2.3203v-.8906h-1.295v-9.7969h1.295Zm7.207 0V72.25h-2.3203v11.5781h2.3203v-.8906h-1.2949v-9.7969h1.2949Zm4.7637-.8906v.8906h1.3008v9.7969h-1.3008v.8906h2.3261V72.25h-2.3261Zm7.207 0v.8906h1.3008v9.7969h-1.3008v.8906h2.3262V72.25h-2.3262Zm8.9941 5.1738v-2.4902h-1.0839v2.4902h-2.3789v1.0782h2.3789v2.6425h1.0839V78.502h2.3848v-1.0782h-2.3848Zm7.8633-4.2832V72.25h-2.3203v11.5781h2.3203v-.8906h-1.2949v-9.7969h1.2949Zm4.7637-.8906v.8906h1.3008v9.7969h-1.3008v.8906h2.3262V72.25h-2.3262Zm9.8086 6.3457v-.0586c0-.5976-.0469-1.1348-.1406-1.6113-.0899-.4805-.2051-.9258-.3457-1.336-.1446-.4257-.3125-.8086-.5039-1.1484-.1915-.3398-.3965-.6484-.6153-.9258-.2109-.2695-.4258-.5-.6445-.6914-.2188-.1914-.4258-.3418-.6211-.4512l-.2285.6622c.1289.1054.2617.2343.3984.3867.1367.1484.2695.3222.3985.5215.1679.2539.332.5527.4921.8964.1602.3399.2969.7247.4102 1.1543.0781.3008.1484.6661.2109 1.0957.0664.4297.0996.9082.0996 1.4356v.082c0 .4649-.0253.9024-.0761 1.3125-.0469.4063-.1153.7852-.2051 1.1367-.0859.3789-.1973.7266-.334 1.043-.1328.3203-.2715.6074-.416.8613-.1523.25-.3125.4707-.4805.6621-.1679.1915-.334.3477-.498.4688l.2285.6621c.1953-.1094.4004-.2598.6152-.4512.2188-.1875.4356-.4179.6504-.6914.211-.2695.4121-.5781.6035-.9258.1953-.3437.3672-.7265.5157-1.1484.1484-.418.2656-.873.3515-1.3652.0899-.4922.1348-1.0176.1348-1.5762Zm7.0488-5.4551V72.25h-2.3203v11.5781h2.3203v-.8906h-1.2949v-9.7969h1.2949Zm6.4336 6.0996v-5.7714h-1.0898v5.7714h1.0898Zm-1.1953 2.1914c0 .1797.0547.3301.1641.4512.1132.1211.2812.1817.5039.1817.2226 0 .3906-.0606.5039-.1817.1172-.1211.1758-.2715.1758-.4512 0-.1875-.0586-.3437-.1758-.4687-.1133-.125-.2813-.1875-.5039-.1875-.2227 0-.3907.0625-.5039.1875-.1094.125-.1641.2812-.1641.4687Zm8.5195-4.0078v-2.4902h-1.084v2.4902h-2.3789v1.0782h2.3789v2.6425h1.084V78.502h2.3848v-1.0782h-2.3848Zm7.8635-4.2832V72.25h-2.32v11.5781h2.32v-.8906h-1.295v-9.7969h1.295Zm4.763-.8906v.8906h1.301v9.7969h-1.301v.8906h2.327V72.25h-2.327Zm8.995 5.1738v-2.4902h-1.084v2.4902h-2.379v1.0782h2.379v2.6425h1.084V78.502h2.384v-1.0782h-2.384Zm7.089 1.8164v-5.7714h-1.089v5.7714h1.089Zm-1.195 2.1914c0 .1797.055.3301.164.4512.114.1211.281.1817.504.1817.223 0 .391-.0606.504-.1817.117-.1211.176-.2715.176-.4512 0-.1875-.059-.3437-.176-.4687-.113-.125-.281-.1875-.504-.1875-.223 0-.39.0625-.504.1875-.109.125-.164.2812-.164.4687Zm8.52-4.0078v-2.4902h-1.084v2.4902h-2.379v1.0782h2.379v2.6425h1.084V78.502h2.384v-1.0782h-2.384Zm7.863-4.2832V72.25h-2.32v11.5781h2.32v-.8906h-1.295v-9.7969h1.295Zm4.764-.8906v.8906h1.3v9.7969h-1.3v.8906h2.326V72.25h-2.326Zm7.207 0v.8906h1.3v9.7969h-1.3v.8906h2.326V72.25h-2.326Zm8.994 5.1738v-2.4902h-1.084v2.4902h-2.379v1.0782h2.379v2.6425h1.084V78.502h2.385v-1.0782h-2.385Zm5.138 1.1133v.0586c0 .5586.043 1.084.129 1.5762.09.4922.209.9472.358 1.3652.144.4219.312.8047.504 1.1484.195.3477.4.6563.615.9258.211.2735.424.5039.639.6914.218.1914.425.3418.621.4512l.228-.6621c-.16-.1289-.32-.2852-.48-.4688-.156-.1796-.309-.3867-.457-.621-.145-.2461-.283-.5254-.416-.8379-.133-.3086-.25-.6446-.352-1.0079-.094-.3593-.168-.7519-.223-1.1777-.054-.4258-.082-.8828-.082-1.3711v-.082c0-.5078.03-.9824.088-1.4238.059-.4414.141-.8457.246-1.2129.11-.4063.247-.7793.411-1.1192.164-.3437.336-.6425.515-.8965.121-.164.244-.3125.369-.4453.129-.1328.256-.2461.381-.3398l-.228-.7149c-.196.1094-.401.2598-.616.4512-.214.1914-.427.4219-.638.6914-.215.2696-.42.5782-.615.9258-.192.3477-.362.7305-.51 1.1484-.149.4219-.268.879-.358 1.3711-.086.4922-.129 1.0176-.129 1.5762Zm9.932-5.3965V72.25h-2.32v11.5781h2.32v-.8906h-1.295v-9.7969h1.295Zm4.764-.8906v.8906h1.301v9.7969h-1.301v.8906h2.326V72.25h-2.326Zm9.65.8906V72.25h-2.32v11.5781h2.32v-.8906h-1.295v-9.7969h1.295Zm4.483 5.3965v.0586c0 .5586.043 1.084.129 1.5762.089.4922.208.9472.357 1.3652.144.4219.312.8047.504 1.1484.195.3477.4.6563.615.9258.211.2735.424.5039.639.6914.219.1914.426.3418.621.4512l.228-.6621c-.16-.1289-.32-.2852-.48-.4688-.156-.1796-.309-.3867-.457-.621-.145-.2461-.283-.5254-.416-.8379-.133-.3086-.25-.6446-.352-1.0079-.093-.3593-.168-.7519-.222-1.1777-.055-.4258-.082-.8828-.082-1.3711v-.082c0-.5078.029-.9824.087-1.4238.059-.4414.141-.8457.247-1.2129.109-.4063.246-.7793.41-1.1192.164-.3437.336-.6425.515-.8965.121-.164.244-.3125.37-.4453.128-.1328.255-.2461.38-.3398l-.228-.7149c-.195.1094-.401.2598-.615.4512-.215.1914-.428.4219-.639.6914-.215.2696-.42.5782-.615.9258-.192.3477-.362.7305-.51 1.1484-.149.4219-.268.879-.357 1.3711-.086.4922-.129 1.0176-.129 1.5762Zm9.158.7031v-5.7714h-1.09v5.7714h1.09Zm-1.195 2.1914c0 .1797.054.3301.164.4512.113.1211.281.1817.503.1817.223 0 .391-.0606.504-.1817.118-.1211.176-.2715.176-.4512 0-.1875-.058-.3437-.176-.4687-.113-.125-.281-.1875-.504-.1875-.222 0-.39.0625-.503.1875-.11.125-.164.2812-.164.4687Zm9.175-8.291V72.25h-2.32v11.5781h2.32v-.8906h-1.295v-9.7969h1.295Zm4.764-.8906v.8906h1.301v9.7969h-1.301v.8906h2.326V72.25h-2.326Zm8.994 5.1738v-2.4902h-1.084v2.4902h-2.379v1.0782h2.379v2.6425h1.084V78.502h2.385v-1.0782h-2.385Zm7.863-4.2832V72.25h-2.32v11.5781h2.32v-.8906h-1.295v-9.7969h1.295Zm4.764-.8906v.8906h1.301v9.7969h-1.301v.8906h2.326V72.25h-2.326Zm9.809 6.3457v-.0586c0-.5976-.047-1.1348-.141-1.6113-.09-.4805-.205-.9258-.346-1.336-.144-.4257-.312-.8086-.504-1.1484-.191-.3398-.396-.6484-.615-.9258-.211-.2695-.426-.5-.644-.6914-.219-.1914-.426-.3418-.621-.4512l-.229.6622c.129.1054.262.2343.398.3867.137.1484.27.3222.399.5215.168.2539.332.5527.492.8964.16.3399.297.7247.41 1.1543.078.3008.149.6661.211 1.0957.067.4297.1.9082.1 1.4356v.082c0 .4649-.026.9024-.076 1.3125-.047.4063-.116.7852-.205 1.1367-.086.3789-.198.7266-.334 1.043-.133.3203-.272.6074-.416.8613-.153.25-.313.4707-.481.6621-.168.1915-.334.3477-.498.4688l.229.6621c.195-.1094.4-.2598.615-.4512.219-.1875.435-.4179.65-.6914.211-.2695.412-.5781.604-.9258.195-.3437.367-.7265.515-1.1484.149-.418.266-.873.352-1.3652.09-.4922.135-1.0176.135-1.5762Zm7.048-5.4551V72.25h-2.32v11.5781h2.32v-.8906h-1.294v-9.7969h1.294Zm6.551 4.2832v-2.4902h-1.084v2.4902h-2.379v1.0782h2.379v2.6425h1.084V78.502h2.385v-1.0782h-2.385Zm7.864-4.2832V72.25h-2.321v11.5781h2.321v-.8906h-1.295v-9.7969h1.295Zm4.763-.8906v.8906h1.301v9.7969h-1.301v.8906h2.326V72.25h-2.326Zm7.207 0v.8906h1.301v9.7969h-1.301v.8906h2.326V72.25h-2.326Zm8.994 5.1738v-2.4902h-1.084v2.4902h-2.379v1.0782h2.379v2.6425h1.084V78.502h2.385v-1.0782h-2.385Zm5.139 1.1133v.0586c0 .5586.043 1.084.129 1.5762.09.4922.209.9472.357 1.3652.145.4219.313.8047.504 1.1484.196.3477.401.6563.616.9258.21.2735.423.5039.638.6914.219.1914.426.3418.621.4512l.229-.6621c-.16-.1289-.321-.2852-.481-.4688-.156-.1796-.308-.3867-.457-.621-.144-.2461-.283-.5254-.416-.8379-.133-.3086-.25-.6446-.351-1.0079-.094-.3593-.168-.7519-.223-1.1777-.055-.4258-.082-.8828-.082-1.3711v-.082c0-.5078.029-.9824.088-1.4238.059-.4414.141-.8457.246-1.2129.109-.4063.246-.7793.41-1.1192.164-.3437.336-.6425.516-.8965.121-.164.244-.3125.369-.4453.129-.1328.256-.2461.381-.3398l-.229-.7149c-.195.1094-.4.2598-.615.4512-.215.1914-.428.4219-.639.6914-.214.2696-.42.5782-.615.9258-.191.3477-.361.7305-.51 1.1484-.148.4219-.267.879-.357 1.3711-.086.4922-.129 1.0176-.129 1.5762Zm9.158.7031v-5.7714h-1.09v5.7714h1.09Zm-1.195 2.1914c0 .1797.055.3301.164.4512.113.1211.281.1817.504.1817.223 0 .391-.0606.504-.1817.117-.1211.176-.2715.176-.4512 0-.1875-.059-.3437-.176-.4687-.113-.125-.281-.1875-.504-.1875-.223 0-.391.0625-.504.1875-.109.125-.164.2812-.164.4687Zm9.176-8.291V72.25h-2.321v11.5781h2.321v-.8906h-1.295v-9.7969h1.295Zm4.763-.8906v.8906h1.301v9.7969h-1.301v.8906h2.327V72.25h-2.327Zm8.995 5.1738v-2.4902h-1.084v2.4902h-2.379v1.0782h2.379v2.6425h1.084V78.502h2.384v-1.0782h-2.384Zm7.863-4.2832V72.25h-2.321v11.5781h2.321v-.8906h-1.295v-9.7969h1.295Zm4.763-.8906v.8906h1.301v9.7969h-1.301v.8906h2.327V72.25h-2.327Zm9.809 6.3457v-.0586c0-.5976-.047-1.1348-.141-1.6113-.089-.4805-.205-.9258-.345-1.336-.145-.4257-.313-.8086-.504-1.1484-.192-.3398-.397-.6484-.615-.9258-.211-.2695-.426-.5-.645-.6914-.219-.1914-.426-.3418-.621-.4512l-.229.6622c.129.1054.262.2343.399.3867.137.1484.269.3222.398.5215.168.2539.332.5527.493.8964.16.3399.296.7247.41 1.1543.078.3008.148.6661.211 1.0957.066.4297.099.9082.099 1.4356v.082c0 .4649-.025.9024-.076 1.3125-.047.4063-.115.7852-.205 1.1367-.086.3789-.197.7266-.334 1.043-.133.3203-.271.6074-.416.8613-.152.25-.313.4707-.48.6621-.168.1915-.334.3477-.499.4688l.229.6621c.195-.1094.4-.2598.615-.4512.219-.1875.436-.4179.651-.6914.211-.2695.412-.5781.603-.9258.195-.3437.367-.7265.516-1.1484.148-.418.265-.873.351-1.3652.09-.4922.135-1.0176.135-1.5762Zm7.049-5.4551V72.25h-2.32v11.5781h2.32v-.8906h-1.295v-9.7969h1.295Zm6.434 6.0996v-5.7714h-1.09v5.7714h1.09Zm-1.196 2.1914c0 .1797.055.3301.164.4512.114.1211.282.1817.504.1817.223 0 .391-.0606.504-.1817.117-.1211.176-.2715.176-.4512 0-.1875-.059-.3437-.176-.4687-.113-.125-.281-.1875-.504-.1875-.222 0-.39.0625-.504.1875-.109.125-.164.2812-.164.4687Zm8.52-4.0078v-2.4902h-1.084v2.4902h-2.379v1.0782h2.379v2.6425h1.084V78.502h2.384v-1.0782h-2.384Zm7.863-4.2832V72.25h-2.32v11.5781h2.32v-.8906h-1.295v-9.7969h1.295Zm4.764-.8906v.8906h1.3v9.7969h-1.3v.8906h2.326V72.25h-2.326Zm8.994 5.1738v-2.4902h-1.084v2.4902h-2.379v1.0782h2.379v2.6425h1.084V78.502h2.385v-1.0782h-2.385Zm7.09 1.8164v-5.7714h-1.09v5.7714h1.09Zm-1.196 2.1914c0 .1797.055.3301.164.4512.114.1211.282.1817.504.1817.223 0 .391-.0606.504-.1817.117-.1211.176-.2715.176-.4512 0-.1875-.059-.3437-.176-.4687-.113-.125-.281-.1875-.504-.1875-.222 0-.39.0625-.504.1875-.109.125-.164.2812-.164.4687Z"/>
  <path fill="url(#f)" d="M9.16016 93.4238v-2.4902H8.07617v2.4902h-2.3789v1.0782h2.3789v2.6425h1.08399V94.502h2.38474v-1.0782H9.16016Zm7.86324-4.2832V88.25h-2.3203v11.5781h2.3203v-.8906h-1.2949v-9.7969h1.2949Zm4.7637-.8906v.8906h1.3008v9.7969h-1.3008v.8906h2.3262V88.25h-2.3262Zm7.207 0v.8906h1.3008v9.7969h-1.3008v.8906h2.3262V88.25h-2.3262Zm8.9942 5.1738v-2.4902h-1.084v2.4902h-2.3789v1.0782h2.3789v2.6425h1.084V94.502h2.3847v-1.0782h-2.3847Zm5.1387 1.1133v.0586c0 .5586.0429 1.084.1289 1.5762.0898.4922.2089.9472.3574 1.3652.1445.4219.3125.8047.5039 1.1484.1953.3477.4004.6563.6152.9258.211.2735.4238.5037.6387.6917.2187.191.4258.342.6211.451l.2285-.662c-.1602-.1291-.3203-.2854-.4805-.469-.1562-.1796-.3086-.3867-.457-.621-.1445-.2461-.2832-.5254-.416-.8379-.1328-.3086-.25-.6446-.3516-1.0079-.0937-.3593-.1679-.7519-.2226-1.1777-.0547-.4258-.0821-.8828-.0821-1.3711v-.082c0-.5078.0293-.9824.0879-1.4238.0586-.4414.1407-.8457.2461-1.2129.1094-.4063.2461-.7793.4102-1.1192.164-.3437.3359-.6425.5156-.8965.1211-.164.2441-.3125.3691-.4453.129-.1328.2559-.2461.3809-.3398l-.2285-.7149c-.1953.1094-.4004.2598-.6152.4512-.2149.1914-.4278.4219-.6387.6914-.2149.2696-.4199.5782-.6153.9258-.1914.3477-.3613.7305-.5097 1.1484-.1485.4219-.2676.879-.3574 1.3711-.086.4922-.1289 1.0176-.1289 1.5762Zm9.1582.7031v-5.7714h-1.0899v5.7714h1.0899Zm-1.1954 2.1914c0 .1797.0547.3301.1641.4512.1133.1211.2813.1817.5039.1817.2227 0 .3906-.0606.5039-.1817.1172-.1211.1758-.2715.1758-.4512 0-.1875-.0586-.3437-.1758-.4687-.1133-.125-.2812-.1875-.5039-.1875-.2226 0-.3906.0625-.5039.1875-.1094.125-.1641.2812-.1641.4687Zm9.1758-8.291V88.25h-2.3203v11.5781h2.3203v-.8906h-1.2949v-9.7969h1.2949Zm4.7637-.8906v.8906h1.3008v9.7969h-1.3008v.8906h2.3262V88.25h-2.3262Zm8.9941 5.1738v-2.4902h-1.0839v2.4902h-2.379v1.0782h2.379v2.6425h1.0839V94.502h2.3848v-1.0782h-2.3848Zm7.8633-4.2832V88.25h-2.3203v11.5781h2.3203v-.8906h-1.2949v-9.7969h1.2949Zm4.7637-.8906v.8906h1.3008v9.7969h-1.3008v.8906h2.3262V88.25h-2.3262Zm9.8086 6.3457v-.0586c0-.5976-.0469-1.1348-.1406-1.6113-.0899-.4805-.2051-.9258-.3457-1.336-.1446-.4257-.3125-.8086-.5039-1.1484-.1915-.3398-.3965-.6484-.6153-.9258-.2109-.2695-.4258-.5-.6445-.6914-.2188-.1914-.4258-.3418-.6211-.4512l-.2285.6622c.1289.1054.2617.2343.3984.3867.1367.1484.2695.3222.3984.5215.168.2539.3321.5527.4922.8964.1602.3399.2969.7247.4102 1.1543.0781.3008.1484.6661.2109 1.0957.0664.4297.0996.9082.0996 1.4356v.082c0 .4649-.0253.9024-.0761 1.3125-.0469.4063-.1153.7852-.2051 1.1367-.0859.3789-.1973.7266-.334 1.043-.1328.3203-.2715.6074-.416.8613-.1524.25-.3125.4707-.4805.6621-.1679.1915-.334.3477-.498.469l.2285.662c.1953-.109.4004-.26.6152-.451.2188-.188.4356-.4182.6504-.6917.211-.2695.4121-.5781.6035-.9258.1953-.3437.3672-.7265.5157-1.1484.1484-.418.2656-.873.3515-1.3652.0899-.4922.1348-1.0176.1348-1.5762Zm7.049-5.4551V88.25h-2.32v11.5781h2.32v-.8906h-1.295v-9.7969h1.295Zm6.551 4.2832v-2.4902h-1.084v2.4902h-2.379v1.0782h2.379v2.6425h1.084V94.502h2.384v-1.0782h-2.384Zm7.089 1.8164v-5.7714h-1.089v5.7714h1.089Zm-1.195 2.1914c0 .1797.055.3301.164.4512.113.1211.281.1817.504.1817.223 0 .391-.0606.504-.1817.117-.1211.176-.2715.176-.4512 0-.1875-.059-.3437-.176-.4687-.113-.125-.281-.1875-.504-.1875-.223 0-.391.0625-.504.1875-.109.125-.164.2812-.164.4687Zm8.52-4.0078v-2.4902h-1.084v2.4902h-2.379v1.0782h2.379v2.6425h1.084V94.502h2.384v-1.0782h-2.384Zm7.863-4.2832V88.25h-2.32v11.5781h2.32v-.8906h-1.295v-9.7969h1.295Zm4.764-.8906v.8906h1.3v9.7969h-1.3v.8906h2.326V88.25H137.1Zm7.207 0v.8906h1.3v9.7969h-1.3v.8906h2.326V88.25h-2.326Zm8.994 5.1738v-2.4902h-1.084v2.4902h-2.379v1.0782h2.379v2.6425h1.084V94.502h2.385v-1.0782h-2.385Zm5.138 1.1133v.0586c0 .5586.043 1.084.129 1.5762.09.4922.209.9472.358 1.3652.144.4219.312.8047.504 1.1484.195.3477.4.6563.615.9258.211.2735.424.5037.639.6917.218.191.425.342.621.451l.228-.662c-.16-.1291-.32-.2854-.48-.469-.157-.1796-.309-.3867-.457-.621-.145-.2461-.284-.5254-.416-.8379-.133-.3086-.25-.6446-.352-1.0079-.094-.3593-.168-.7519-.223-1.1777-.054-.4258-.082-.8828-.082-1.3711v-.082c0-.5078.03-.9824.088-1.4238.059-.4414.141-.8457.246-1.2129.11-.4063.247-.7793.411-1.1192.164-.3437.336-.6425.515-.8965.121-.164.244-.3125.369-.4453.129-.1328.256-.2461.381-.3398l-.228-.7149c-.196.1094-.401.2598-.616.4512-.214.1914-.427.4219-.638.6914-.215.2696-.42.5782-.615.9258-.192.3477-.362.7305-.51 1.1484-.149.4219-.268.879-.358 1.3711-.086.4922-.129 1.0176-.129 1.5762Zm9.159.7031v-5.7714h-1.09v5.7714h1.09Zm-1.196 2.1914c0 .1797.055.3301.164.4512.114.1211.282.1817.504.1817.223 0 .391-.0606.504-.1817.117-.1211.176-.2715.176-.4512 0-.1875-.059-.3437-.176-.4687-.113-.125-.281-.1875-.504-.1875-.222 0-.39.0625-.504.1875-.109.125-.164.2812-.164.4687Zm8.403-2.1914v-5.7714h-1.09v5.7714h1.09Zm-1.196 2.1914c0 .1797.055.3301.164.4512.114.1211.282.1817.504.1817.223 0 .391-.0606.504-.1817.117-.1211.176-.2715.176-.4512 0-.1875-.059-.3437-.176-.4687-.113-.125-.281-.1875-.504-.1875-.222 0-.39.0625-.504.1875-.109.125-.164.2812-.164.4687Zm9.176-8.291V88.25h-2.32v11.5781h2.32v-.8906h-1.295v-9.7969h1.295Zm4.764-.8906v.8906h1.301v9.7969h-1.301v.8906h2.326V88.25h-2.326Zm8.994 5.1738v-2.4902h-1.084v2.4902h-2.379v1.0782h2.379v2.6425h1.084V94.502h2.385v-1.0782h-2.385Zm7.863-4.2832V88.25h-2.32v11.5781h2.32v-.8906h-1.295v-9.7969h1.295Zm4.764-.8906v.8906h1.301v9.7969h-1.301v.8906h2.326V88.25h-2.326Zm9.809 6.3457v-.0586c0-.5976-.047-1.1348-.141-1.6113-.09-.4805-.205-.9258-.346-1.336-.144-.4257-.312-.8086-.504-1.1484-.191-.3398-.396-.6484-.615-.9258-.211-.2695-.426-.5-.644-.6914-.219-.1914-.426-.3418-.622-.4512l-.228.6622c.129.1054.262.2343.398.3867.137.1484.27.3222.399.5215.168.2539.332.5527.492.8964.16.3399.297.7247.41 1.1543.078.3008.149.6661.211 1.0957.066.4297.1.9082.1 1.4356v.082c0 .4649-.026.9024-.077 1.3125-.046.4063-.115.7852-.205 1.1367-.086.3789-.197.7266-.334 1.043-.132.3203-.271.6074-.416.8613-.152.25-.312.4707-.48.6621-.168.1915-.334.3477-.498.469l.228.662c.196-.109.401-.26.616-.451.218-.188.435-.4182.65-.6917.211-.2695.412-.5781.604-.9258.195-.3437.367-.7265.515-1.1484.149-.418.266-.873.352-1.3652.09-.4922.135-1.0176.135-1.5762Zm7.048-5.4551V88.25h-2.32v11.5781h2.32v-.8906h-1.295v-9.7969h1.295Zm6.551 4.2832v-2.4902h-1.084v2.4902h-2.379v1.0782h2.379v2.6425h1.084V94.502h2.385v-1.0782h-2.385Zm7.863-4.2832V88.25h-2.32v11.5781h2.32v-.8906h-1.295v-9.7969h1.295Zm4.764-.8906v.8906h1.301v9.7969h-1.301v.8906h2.326V88.25h-2.326Zm7.207 0v.8906h1.301v9.7969h-1.301v.8906h2.326V88.25h-2.326Zm7.207 0v.8906h1.301v9.7969h-1.301v.8906h2.326V88.25h-2.326Zm8.994 5.1738v-2.4902h-1.084v2.4902h-2.379v1.0782h2.379v2.6425h1.084V94.502h2.385v-1.0782h-2.385Zm7.864-4.2832V88.25h-2.321v11.5781h2.321v-.8906h-1.295v-9.7969h1.295Zm4.763-.8906v.8906h1.301v9.7969h-1.301v.8906h2.326V88.25h-2.326Zm9.809 6.3457v-.0586c0-.5976-.047-1.1348-.141-1.6113-.09-.4805-.205-.9258-.346-1.336-.144-.4257-.312-.8086-.503-1.1484-.192-.3398-.397-.6484-.616-.9258-.211-.2695-.425-.5-.644-.6914-.219-.1914-.426-.3418-.621-.4512l-.229.6622c.129.1054.262.2343.399.3867.136.1484.269.3222.398.5215.168.2539.332.5527.492.8964.16.3399.297.7247.41 1.1543.079.3008.149.6661.211 1.0957.067.4297.1.9082.1 1.4356v.082c0 .4649-.025.9024-.076 1.3125-.047.4063-.115.7852-.205 1.1367-.086.3789-.198.7266-.334 1.043-.133.3203-.272.6074-.416.8613-.153.25-.313.4707-.481.6621-.168.1915-.334.3477-.498.469l.229.662c.195-.109.4-.26.615-.451.219-.188.436-.4182.65-.6917.211-.2695.412-.5781.604-.9258.195-.3437.367-.7265.515-1.1484.149-.418.266-.873.352-1.3652.09-.4922.135-1.0176.135-1.5762Zm7.049-5.4551V88.25h-2.321v11.5781h2.321v-.8906h-1.295v-9.7969h1.295Zm6.55 4.2832v-2.4902h-1.084v2.4902h-2.378v1.0782h2.378v2.6425h1.084V94.502h2.385v-1.0782h-2.385Zm7.09 1.8164v-5.7714h-1.09v5.7714h1.09Zm-1.195 2.1914c0 .1797.055.3301.164.4512.113.1211.281.1817.504.1817.223 0 .391-.0606.504-.1817.117-.1211.176-.2715.176-.4512 0-.1875-.059-.3437-.176-.4687-.113-.125-.281-.1875-.504-.1875-.223 0-.391.0625-.504.1875-.109.125-.164.2812-.164.4687Zm8.519-4.0078v-2.4902h-1.083v2.4902H315.6v1.0782h2.379v2.6425h1.083V94.502h2.385v-1.0782h-2.385Zm7.864-4.2832V88.25h-2.321v11.5781h2.321v-.8906h-1.295v-9.7969h1.295Zm4.763-.8906v.8906h1.301v9.7969h-1.301v.8906h2.327V88.25h-2.327Zm8.995 5.1738v-2.4902H339.6v2.4902h-2.379v1.0782h2.379v2.6425h1.084V94.502h2.384v-1.0782h-2.384Zm7.863-4.2832V88.25h-2.32v11.5781h2.32v-.8906h-1.295v-9.7969h1.295Zm6.433 6.0996v-5.7714h-1.089v5.7714h1.089Zm-1.195 2.1914c0 .1797.055.3301.164.4512.113.1211.281.1817.504.1817.223 0 .391-.0606.504-.1817.117-.1211.176-.2715.176-.4512 0-.1875-.059-.3437-.176-.4687-.113-.125-.281-.1875-.504-.1875-.223 0-.391.0625-.504.1875-.109.125-.164.2812-.164.4687Zm8.52-4.0078v-2.4902h-1.084v2.4902h-2.379v1.0782h2.379v2.6425h1.084V94.502h2.384v-1.0782h-2.384Zm7.863-4.2832V88.25h-2.32v11.5781h2.32v-.8906h-1.295v-9.7969h1.295Zm4.764-.8906v.8906h1.3v9.7969h-1.3v.8906h2.326V88.25h-2.326Zm8.994 5.1738v-2.4902h-1.084v2.4902h-2.379v1.0782h2.379v2.6425h1.084V94.502h2.385v-1.0782h-2.385Zm7.09 1.8164v-5.7714h-1.09v5.7714h1.09Zm-1.196 2.1914c0 .1797.055.3301.164.4512.114.1211.282.1817.504.1817.223 0 .391-.0606.504-.1817.117-.1211.176-.2715.176-.4512 0-.1875-.059-.3437-.176-.4687-.113-.125-.281-.1875-.504-.1875-.222 0-.39.0625-.504.1875-.109.125-.164.2812-.164.4687Zm8.52-4.0078v-2.4902h-1.084v2.4902h-2.379v1.0782h2.379v2.6425h1.084V94.502h2.385v-1.0782h-2.385Z"/>
  <path fill="#888" d="M9.81641 105.141v-.891H7.49609v11.578h2.32032v-.89H8.52148v-9.797h1.29493Zm4.76369-.891v.891h1.3008v9.797h-1.3008v.89h2.3261V104.25h-2.3261Zm8.9941 5.174v-2.49h-1.084v2.49h-2.3789v1.078h2.3789v2.643h1.084v-2.643h2.3848v-1.078h-2.3848Zm7.0899 1.816v-5.771h-1.0899v5.771h1.0899Zm-1.1953 2.192c0 .179.0546.33.164.451.1133.121.2813.181.5039.181.2227 0 .3906-.06.5039-.181.1172-.121.1758-.272.1758-.451 0-.188-.0586-.344-.1758-.469-.1133-.125-.2812-.188-.5039-.188-.2226 0-.3906.063-.5039.188-.1094.125-.164.281-.164.469Zm8.5195-4.008v-2.49h-1.084v2.49h-2.3789v1.078h2.3789v2.643h1.084v-2.643h2.3847v-1.078h-2.3847Zm7.8633-4.283v-.891h-2.3204v11.578h2.3204v-.89h-1.295v-9.797h1.295Zm4.7636-.891v.891h1.3008v9.797h-1.3008v.89h2.3262V104.25h-2.3262Zm7.2071 0v.891h1.3007v9.797h-1.3007v.89h2.3261V104.25h-2.3261Zm7.207 0v.891h1.3008v9.797h-1.3008v.89h2.3262V104.25h-2.3262Zm8.9941 5.174v-2.49h-1.0839v2.49h-2.379v1.078h2.379v2.643h1.0839v-2.643h2.3848v-1.078h-2.3848Z"/>
  <path fill="#fff" d="M79.1621 110.537v.059c0 .558.043 1.084.1289 1.576.0899.492.209.947.3574 1.365.1446.422.3125.805.5039 1.149.1954.347.4004.656.6153.925.2109.274.4238.504.6386.692.2188.191.4258.342.6211.451l.2286-.662c-.1602-.129-.3204-.285-.4805-.469-.1563-.18-.3086-.387-.457-.621-.1446-.246-.2832-.525-.4161-.838-.1328-.309-.25-.644-.3515-1.008-.0938-.359-.168-.752-.2227-1.177-.0547-.426-.082-.883-.082-1.372v-.082c0-.507.0293-.982.0879-1.423.0586-.442.1406-.846.2461-1.213.1094-.407.2461-.78.4101-1.119.1641-.344.336-.643.5157-.897.1211-.164.2441-.312.3691-.445.1289-.133.2559-.246.3809-.34l-.2286-.715c-.1953.109-.4003.26-.6152.451-.2148.192-.4277.422-.6387.692-.2148.269-.4199.578-.6152.925-.1914.348-.3613.731-.5098 1.149-.1484.422-.2675.879-.3574 1.371-.0859.492-.1289 1.018-.1289 1.576Zm9.2754-1.113v-2.49h-1.084v2.49h-2.3789v1.078h2.3789v2.643h1.084v-2.643h2.3848v-1.078h-2.3848Zm5.1387 1.113v.059c0 .558.0429 1.084.1289 1.576.0898.492.209.947.3574 1.365.1445.422.3125.805.5039 1.149.1953.347.4004.656.6152.925.211.274.4239.504.6387.692.2188.191.4258.342.6211.451l.2285-.662c-.1601-.129-.3203-.285-.4804-.469-.1563-.18-.3086-.387-.4571-.621-.1445-.246-.2832-.525-.416-.838-.1328-.309-.25-.644-.3516-1.008-.0937-.359-.1679-.752-.2226-1.177-.0547-.426-.082-.883-.082-1.372v-.082c0-.507.0293-.982.0878-1.423.0586-.442.1407-.846.2461-1.213.1094-.407.2461-.78.4102-1.119.1641-.344.3359-.643.5156-.897.1211-.164.2442-.312.3692-.445.1289-.133.2558-.246.3808-.34l-.2285-.715c-.1953.109-.4004.26-.6152.451-.2149.192-.4278.422-.6387.692-.2148.269-.4199.578-.6152.925-.1914.348-.3614.731-.5098 1.149-.1484.422-.2676.879-.3574 1.371-.086.492-.1289 1.018-.1289 1.576Zm9.2758-1.113v-2.49h-1.084v2.49h-2.3793v1.078h2.3793v2.643h1.084v-2.643h2.384v-1.078h-2.384Zm7.089 1.816v-5.771h-1.089v5.771h1.089Zm-1.195 2.192c0 .179.055.33.164.451.113.121.281.181.504.181.223 0 .391-.06.504-.181.117-.121.176-.272.176-.451 0-.188-.059-.344-.176-.469-.113-.125-.281-.188-.504-.188-.223 0-.391.063-.504.188-.109.125-.164.281-.164.469Zm8.52-4.008v-2.49h-1.084v2.49h-2.379v1.078h2.379v2.643h1.084v-2.643h2.384v-1.078h-2.384Zm7.863-4.283v-.891h-2.32v11.578h2.32v-.89h-1.295v-9.797h1.295Zm4.764-.891v.891h1.3v9.797h-1.3v.89h2.326V104.25h-2.326Zm8.994 5.174v-2.49h-1.084v2.49h-2.379v1.078h2.379v2.643h1.084v-2.643h2.384v-1.078h-2.384Zm7.863-4.283v-.891h-2.32v11.578h2.32v-.89h-1.295v-9.797h1.295Zm6.551 4.283v-2.49h-1.084v2.49h-2.379v1.078h2.379v2.643h1.084v-2.643h2.385v-1.078h-2.385Zm7.09 1.816v-5.771h-1.09v5.771h1.09Zm-1.196 2.192c0 .179.055.33.164.451.114.121.282.181.504.181.223 0 .391-.06.504-.181.117-.121.176-.272.176-.451 0-.188-.059-.344-.176-.469-.113-.125-.281-.188-.504-.188-.222 0-.39.063-.504.188-.109.125-.164.281-.164.469Zm8.52-4.008v-2.49h-1.084v2.49h-2.379v1.078h2.379v2.643h1.084v-2.643h2.385v-1.078h-2.385Zm7.863-4.283v-.891h-2.32v11.578h2.32v-.89h-1.295v-9.797h1.295Zm4.764-.891v.891h1.301v9.797h-1.301v.89h2.326V104.25h-2.326Zm7.207 0v.891h1.301v9.797h-1.301v.89h2.326V104.25h-2.326Zm8.994 5.174v-2.49h-1.084v2.49h-2.379v1.078h2.379v2.643h1.084v-2.643h2.385v-1.078h-2.385Zm5.139 1.113v.059c0 .558.043 1.084.129 1.576.089.492.209.947.357 1.365.144.422.312.805.504 1.149.195.347.4.656.615.925.211.274.424.504.639.692.219.191.426.342.621.451l.228-.662c-.16-.129-.32-.285-.48-.469-.156-.18-.309-.387-.457-.621-.145-.246-.283-.525-.416-.838-.133-.309-.25-.644-.352-1.008-.093-.359-.168-.752-.222-1.177-.055-.426-.082-.883-.082-1.372v-.082c0-.507.029-.982.088-1.423.058-.442.14-.846.246-1.213.109-.407.246-.78.41-1.119.164-.344.336-.643.515-.897.121-.164.245-.312.37-.445.128-.133.255-.246.38-.34l-.228-.715c-.195.109-.401.26-.615.451-.215.192-.428.422-.639.692-.215.269-.42.578-.615.925-.192.348-.362.731-.51 1.149-.148.422-.268.879-.357 1.371-.086.492-.129 1.018-.129 1.576Zm9.158.703v-5.771h-1.09v5.771h1.09Zm-1.195 2.192c0 .179.054.33.164.451.113.121.281.181.503.181.223 0 .391-.06.504-.181.118-.121.176-.272.176-.451 0-.188-.058-.344-.176-.469-.113-.125-.281-.188-.504-.188-.222 0-.39.063-.503.188-.11.125-.164.281-.164.469Zm8.402-2.192v-5.771h-1.09v5.771h1.09Zm-1.195 2.192c0 .179.054.33.164.451.113.121.281.181.504.181.222 0 .39-.06.503-.181.118-.121.176-.272.176-.451 0-.188-.058-.344-.176-.469-.113-.125-.281-.188-.503-.188-.223 0-.391.063-.504.188-.11.125-.164.281-.164.469Zm9.175-8.291v-.891h-2.32v11.578h2.32v-.89h-1.295v-9.797h1.295Zm4.764-.891v.891h1.301v9.797h-1.301v.89h2.326V104.25h-2.326Zm8.994 5.174v-2.49h-1.084v2.49h-2.379v1.078h2.379v2.643h1.084v-2.643h2.385v-1.078h-2.385Zm7.863-4.283v-.891h-2.32v11.578h2.32v-.89h-1.294v-9.797h1.294Zm4.764-.891v.891h1.301v9.797h-1.301v.89h2.326V104.25h-2.326Zm9.809 6.346v-.059c0-.598-.047-1.135-.141-1.611-.09-.481-.205-.926-.346-1.336-.144-.426-.312-.809-.504-1.149-.191-.339-.396-.648-.615-.925-.211-.27-.426-.5-.644-.692-.219-.191-.426-.342-.621-.451l-.229.662c.129.106.262.235.399.387.136.148.269.322.398.521.168.254.332.553.492.897.16.34.297.724.41 1.154.078.301.149.666.211 1.096.067.43.1.908.1 1.435v.082c0 .465-.026.903-.076 1.313-.047.406-.116.785-.205 1.137-.086.379-.198.726-.334 1.043-.133.32-.272.607-.416.861-.153.25-.313.471-.481.662-.168.191-.334.348-.498.469l.229.662c.195-.109.4-.26.615-.451.219-.188.435-.418.65-.692.211-.269.412-.578.604-.925.195-.344.367-.727.515-1.149.149-.418.266-.873.352-1.365.09-.492.135-1.018.135-1.576Zm7.049-5.455v-.891h-2.321v11.578h2.321v-.89h-1.295v-9.797h1.295Zm6.433 6.099v-5.771h-1.09v5.771h1.09Zm-1.195 2.192c0 .179.054.33.164.451.113.121.281.181.504.181.222 0 .39-.06.504-.181.117-.121.175-.272.175-.451 0-.188-.058-.344-.175-.469-.114-.125-.282-.188-.504-.188-.223 0-.391.063-.504.188-.11.125-.164.281-.164.469Zm8.519-4.008v-2.49h-1.084v2.49h-2.379v1.078h2.379v2.643h1.084v-2.643h2.385v-1.078h-2.385Zm7.864-4.283v-.891h-2.321v11.578h2.321v-.89h-1.295v-9.797h1.295Zm4.763-.891v.891h1.301v9.797h-1.301v.89h2.326V104.25h-2.326Zm8.994 5.174v-2.49h-1.084v2.49h-2.378v1.078h2.378v2.643h1.084v-2.643h2.385v-1.078h-2.385Zm7.09 1.816v-5.771h-1.09v5.771h1.09Zm-1.195 2.192c0 .179.055.33.164.451.113.121.281.181.504.181.223 0 .391-.06.504-.181.117-.121.176-.272.176-.451 0-.188-.059-.344-.176-.469-.113-.125-.281-.188-.504-.188-.223 0-.391.063-.504.188-.109.125-.164.281-.164.469Zm8.519-4.008v-2.49h-1.083v2.49H315.6v1.078h2.379v2.643h1.083v-2.643h2.385v-1.078h-2.385Zm7.864-4.283v-.891h-2.321v11.578h2.321v-.89h-1.295v-9.797h1.295Zm4.763-.891v.891h1.301v9.797h-1.301v.89h2.327V104.25h-2.327Zm8.995 5.174v-2.49H339.6v2.49h-2.379v1.078h2.379v2.643h1.084v-2.643h2.384v-1.078h-2.384Zm7.089 1.816v-5.771h-1.089v5.771h1.089Zm-1.195 2.192c0 .179.055.33.164.451.113.121.281.181.504.181.223 0 .391-.06.504-.181.117-.121.176-.272.176-.451 0-.188-.059-.344-.176-.469-.113-.125-.281-.188-.504-.188-.223 0-.391.063-.504.188-.109.125-.164.281-.164.469Zm8.52-4.008v-2.49h-1.084v2.49h-2.379v1.078h2.379v2.643h1.084v-2.643h2.384v-1.078h-2.384Zm7.863-4.283v-.891h-2.32v11.578h2.32v-.89h-1.295v-9.797h1.295Zm4.764-.891v.891h1.3v9.797h-1.3v.89h2.326V104.25h-2.326Zm7.207 0v.891h1.3v9.797h-1.3v.89h2.326V104.25h-2.326Zm8.994 5.174v-2.49h-1.084v2.49h-2.379v1.078h2.379v2.643h1.084v-2.643h2.385v-1.078h-2.385Zm7.863-4.283v-.891h-2.32v11.578h2.32v-.89h-1.295v-9.797h1.295Zm6.434 6.099v-5.771h-1.09v5.771h1.09Zm-1.196 2.192c0 .179.055.33.164.451.114.121.282.181.504.181.223 0 .391-.06.504-.181.117-.121.176-.272.176-.451 0-.188-.059-.344-.176-.469-.113-.125-.281-.188-.504-.188-.222 0-.39.063-.504.188-.109.125-.164.281-.164.469ZM9.16016 125.424v-2.49H8.07617v2.49h-2.3789v1.078h2.3789v2.643h1.08399v-2.643h2.38474v-1.078H9.16016Zm7.86324-4.283v-.891h-2.3203v11.578h2.3203v-.89h-1.2949v-9.797h1.2949Zm4.7637-.891v.891h1.3008v9.797h-1.3008v.89h2.3262V120.25h-2.3262Zm8.9941 5.174v-2.49h-1.0839v2.49h-2.3789v1.078h2.3789v2.643h1.0839v-2.643h2.3848v-1.078h-2.3848Zm7.0899 1.816v-5.771h-1.0899v5.771h1.0899Zm-1.1953 2.192c0 .179.0547.33.164.451.1133.121.2813.181.504.181.2226 0 .3906-.06.5039-.181.1171-.121.1757-.272.1757-.451 0-.188-.0586-.344-.1757-.469-.1133-.125-.2813-.188-.5039-.188-.2227 0-.3907.063-.504.188-.1093.125-.164.281-.164.469Zm8.5195-4.008v-2.49h-1.084v2.49h-2.3789v1.078h2.3789v2.643h1.084v-2.643h2.3848v-1.078h-2.3848Zm7.8633-4.283v-.891h-2.3203v11.578h2.3203v-.89h-1.2949v-9.797h1.2949Zm4.7637-.891v.891h1.3007v9.797h-1.3007v.89h2.3261V120.25h-2.3261Zm7.207 0v.891h1.3008v9.797h-1.3008v.89h2.3262V120.25h-2.3262Zm8.9941 5.174v-2.49h-1.0839v2.49h-2.379v1.078h2.379v2.643h1.0839v-2.643h2.3848v-1.078h-2.3848Zm7.8633-4.283v-.891h-2.3203v11.578h2.3203v-.89h-1.2949v-9.797h1.2949Zm6.5508 4.283v-2.49h-1.084v2.49h-2.3789v1.078h2.3789v2.643h1.084v-2.643h2.3848v-1.078h-2.3848Zm7.8633-4.283v-.891h-2.3203v11.578h2.3203v-.89h-1.2949v-9.797h1.2949Zm4.7632-.891v.891h1.301v9.797h-1.301v.89h2.327V120.25h-2.327Zm7.207 0v.891h1.301v9.797h-1.301v.89h2.327V120.25h-2.327Zm9.809 6.346v-.059c0-.598-.047-1.135-.141-1.611-.089-.481-.205-.926-.345-1.336-.145-.426-.313-.809-.504-1.149-.192-.339-.397-.648-.615-.925-.211-.27-.426-.5-.645-.692-.219-.191-.426-.342-.621-.451l-.229.662c.129.106.262.235.399.387.137.148.269.322.398.521.168.254.332.553.493.897.16.34.296.724.41 1.154.078.301.148.666.211 1.096.066.43.099.908.099 1.435v.082c0 .465-.025.903-.076 1.313-.047.406-.115.785-.205 1.137-.086.379-.197.726-.334 1.043-.133.32-.271.607-.416.861-.152.25-.313.471-.48.662-.168.191-.334.348-.499.469l.229.662c.195-.109.4-.26.615-.451.219-.188.436-.418.651-.692.211-.269.412-.578.603-.925.195-.344.367-.727.516-1.149.148-.418.265-.873.351-1.365.09-.492.135-1.018.135-1.576Zm6.393-1.172v-2.49h-1.084v2.49h-2.379v1.078h2.379v2.643h1.084v-2.643h2.384v-1.078h-2.384Zm7.863-4.283v-.891h-2.32v11.578h2.32v-.89h-1.295v-9.797h1.295Zm4.764-.891v.891h1.3v9.797h-1.3v.89h2.326V120.25H137.1Zm9.808 6.346v-.059c0-.598-.047-1.135-.14-1.611-.09-.481-.206-.926-.346-1.336-.145-.426-.313-.809-.504-1.149-.191-.339-.397-.648-.615-.925-.211-.27-.426-.5-.645-.692-.219-.191-.426-.342-.621-.451l-.228.662c.129.106.261.235.398.387.137.148.27.322.398.521.168.254.333.553.493.897.16.34.297.724.41 1.154.078.301.148.666.211 1.096.066.43.099.908.099 1.435v.082c0 .465-.025.903-.076 1.313-.047.406-.115.785-.205 1.137-.086.379-.197.726-.334 1.043-.133.32-.271.607-.416.861-.152.25-.312.471-.48.662-.168.191-.334.348-.498.469l.228.662c.195-.109.401-.26.615-.451.219-.188.436-.418.651-.692.211-.269.412-.578.603-.925.196-.344.367-.727.516-1.149.148-.418.266-.873.351-1.365.09-.492.135-1.018.135-1.576Zm7.049-5.455v-.891h-2.32v11.578h2.32v-.89h-1.295v-9.797h1.295Zm6.551 4.283v-2.49h-1.084v2.49h-2.379v1.078h2.379v2.643h1.084v-2.643h2.385v-1.078h-2.385Zm7.09 1.816v-5.771h-1.09v5.771h1.09Zm-1.196 2.192c0 .179.055.33.164.451.114.121.282.181.504.181.223 0 .391-.06.504-.181.117-.121.176-.272.176-.451 0-.188-.059-.344-.176-.469-.113-.125-.281-.188-.504-.188-.222 0-.39.063-.504.188-.109.125-.164.281-.164.469Zm8.52-4.008v-2.49h-1.084v2.49h-2.379v1.078h2.379v2.643h1.084v-2.643h2.385v-1.078h-2.385Zm7.863-4.283v-.891h-2.32v11.578h2.32v-.89h-1.295v-9.797h1.295Zm4.764-.891v.891h1.301v9.797h-1.301v.89h2.326V120.25h-2.326Zm7.207 0v.891h1.301v9.797h-1.301v.89h2.326V120.25h-2.326Z"/>
  <path fill="url(#g)" d="M203.75 125.424v-2.49h-1.084v2.49h-2.379v1.078h2.379v2.643h1.084v-2.643h2.385v-1.078h-2.385Zm5.139 1.113v.059c0 .558.043 1.084.129 1.576.089.492.209.947.357 1.365.145.422.313.805.504 1.149.195.347.4.656.615.925.211.274.424.504.639.692.219.191.426.342.621.451l.228-.662c-.16-.129-.32-.285-.48-.469-.156-.18-.309-.387-.457-.621-.145-.246-.283-.525-.416-.838-.133-.309-.25-.644-.352-1.008-.093-.359-.168-.752-.222-1.177-.055-.426-.082-.883-.082-1.372v-.082c0-.507.029-.982.088-1.423.058-.442.14-.846.246-1.213.109-.407.246-.78.41-1.119.164-.344.336-.643.515-.897.122-.164.245-.312.37-.445.128-.133.255-.246.38-.34l-.228-.715c-.195.109-.4.26-.615.451-.215.192-.428.422-.639.692-.215.269-.42.578-.615.925-.192.348-.362.731-.51 1.149-.148.422-.268.879-.357 1.371-.086.492-.129 1.018-.129 1.576Zm9.931-5.396v-.891h-2.32v11.578h2.32v-.89h-1.295v-9.797h1.295Zm6.551 4.283v-2.49h-1.084v2.49h-2.379v1.078h2.379v2.643h1.084v-2.643h2.385v-1.078h-2.385Zm7.863-4.283v-.891h-2.32v11.578h2.32v-.89h-1.295v-9.797h1.295Zm4.764-.891v.891h1.301v9.797h-1.301v.89h2.326V120.25h-2.326Zm7.207 0v.891h1.301v9.797h-1.301v.89h2.326V120.25h-2.326Zm8.994 5.174v-2.49h-1.084v2.49h-2.379v1.078h2.379v2.643h1.084v-2.643h2.385v-1.078h-2.385Zm7.09 1.816v-5.771h-1.09v5.771h1.09Zm-1.195 2.192c0 .179.054.33.164.451.113.121.281.181.504.181.222 0 .39-.06.504-.181.117-.121.175-.272.175-.451 0-.188-.058-.344-.175-.469-.114-.125-.282-.188-.504-.188-.223 0-.391.063-.504.188-.11.125-.164.281-.164.469Zm9.176-8.291v-.891h-2.321v11.578h2.321v-.89h-1.295v-9.797h1.295Zm4.763-.891v.891h1.301v9.797h-1.301v.89h2.326V120.25h-2.326Zm8.994 5.174v-2.49h-1.084v2.49h-2.379v1.078h2.379v2.643h1.084v-2.643h2.385v-1.078h-2.385Zm7.864-4.283v-.891h-2.321v11.578h2.321v-.89h-1.295v-9.797h1.295Zm4.763-.891v.891h1.301v9.797h-1.301v.89h2.326V120.25h-2.326Zm9.651.891v-.891h-2.321v11.578h2.321v-.89h-1.295v-9.797h1.295Zm4.482 5.396v.059c0 .558.043 1.084.129 1.576.09.492.209.947.357 1.365.145.422.313.805.504 1.149.196.347.401.656.616.925.211.274.423.504.638.692.219.191.426.342.621.451l.229-.662c-.16-.129-.32-.285-.481-.469-.156-.18-.308-.387-.457-.621-.144-.246-.283-.525-.416-.838-.132-.309-.25-.644-.351-1.008-.094-.359-.168-.752-.223-1.177-.055-.426-.082-.883-.082-1.372v-.082c0-.507.029-.982.088-1.423.059-.442.141-.846.246-1.213.109-.407.246-.78.41-1.119.164-.344.336-.643.516-.897.121-.164.244-.312.369-.445.129-.133.256-.246.381-.34l-.229-.715c-.195.109-.4.26-.615.451-.215.192-.428.422-.639.692-.214.269-.419.578-.615.925-.191.348-.361.731-.51 1.149-.148.422-.267.879-.357 1.371-.086.492-.129 1.018-.129 1.576Zm9.158.703v-5.771h-1.09v5.771h1.09Zm-1.195 2.192c0 .179.055.33.164.451.113.121.281.181.504.181.223 0 .391-.06.504-.181.117-.121.176-.272.176-.451 0-.188-.059-.344-.176-.469-.113-.125-.281-.188-.504-.188-.223 0-.391.063-.504.188-.109.125-.164.281-.164.469Zm9.176-8.291v-.891h-2.321v11.578h2.321v-.89h-1.295v-9.797h1.295Zm4.763-.891v.891h1.301v9.797h-1.301v.89h2.327V120.25h-2.327Zm8.995 5.174v-2.49H339.6v2.49h-2.379v1.078h2.379v2.643h1.084v-2.643h2.384v-1.078h-2.384Zm7.863-4.283v-.891h-2.32v11.578h2.32v-.89h-1.295v-9.797h1.295Zm4.764-.891v.891h1.3v9.797h-1.3v.89h2.326V120.25h-2.326Zm9.808 6.346v-.059c0-.598-.047-1.135-.14-1.611-.09-.481-.206-.926-.346-1.336-.145-.426-.313-.809-.504-1.149-.191-.339-.397-.648-.615-.925-.211-.27-.426-.5-.645-.692-.219-.191-.426-.342-.621-.451l-.228.662c.128.106.261.235.398.387.137.148.27.322.398.521.168.254.332.553.493.897.16.34.296.724.41 1.154.078.301.148.666.211 1.096.066.43.099.908.099 1.435v.082c0 .465-.025.903-.076 1.313-.047.406-.115.785-.205 1.137-.086.379-.197.726-.334 1.043-.133.32-.271.607-.416.861-.152.25-.312.471-.48.662-.168.191-.334.348-.498.469l.228.662c.195-.109.4-.26.615-.451.219-.188.436-.418.651-.692.211-.269.412-.578.603-.925.195-.344.367-.727.516-1.149.148-.418.265-.873.351-1.365.09-.492.135-1.018.135-1.576Zm7.049-5.455v-.891h-2.32v11.578h2.32v-.89h-1.295v-9.797h1.295Zm6.551 4.283v-2.49h-1.084v2.49h-2.379v1.078h2.379v2.643h1.084v-2.643h2.385v-1.078h-2.385Zm7.863-4.283v-.891h-2.32v11.578h2.32v-.89h-1.295v-9.797h1.295Zm4.764-.891v.891h1.3v9.797h-1.3v.89h2.326V120.25h-2.326Zm7.207 0v.891h1.301v9.797h-1.301v.89h2.326V120.25h-2.326Z"/>
  <path fill="url(#h)" d="M9.16016 141.424v-2.49H8.07617v2.49h-2.3789v1.078h2.3789v2.643h1.08399v-2.643h2.38474v-1.078H9.16016Zm5.13864 1.113v.059c0 .558.043 1.084.1289 1.576.0899.492.209.947.3575 1.365.1445.422.3125.805.5039 1.149.1953.347.4004.656.6152.925.2109.274.4238.504.6387.692.2187.191.4258.342.6211.451l.2285-.662c-.1602-.129-.3203-.285-.4805-.469-.1562-.18-.3086-.387-.457-.621-.1446-.246-.2832-.525-.416-.838-.1329-.309-.25-.644-.3516-1.008-.0937-.359-.168-.752-.2227-1.177-.0546-.426-.082-.883-.082-1.372v-.082c0-.507.0293-.982.0879-1.423.0586-.442.1406-.846.2461-1.213.1094-.407.2461-.78.4102-1.119.164-.344.3359-.643.5156-.897.1211-.164.2441-.312.3691-.445.1289-.133.2559-.246.3809-.34l-.2285-.715c-.1953.109-.4004.26-.6153.451-.2148.192-.4277.422-.6386.692-.2149.269-.42.578-.6153.925-.1914.348-.3613.731-.5097 1.149-.1485.422-.2676.879-.3575 1.371-.0859.492-.1289 1.018-.1289 1.576Zm9.1582.703v-5.771h-1.0898v5.771h1.0898Zm-1.1953 2.192c0 .179.0547.33.1641.451.1133.121.2812.181.5039.181.2226 0 .3906-.06.5039-.181.1172-.121.1758-.272.1758-.451 0-.188-.0586-.344-.1758-.469-.1133-.125-.2813-.188-.5039-.188-.2227 0-.3906.063-.5039.188-.1094.125-.1641.281-.1641.469Zm9.1758-8.291v-.891h-2.3203v11.578h2.3203v-.89h-1.2949v-9.797h1.2949Zm4.7637-.891v.891h1.3008v9.797h-1.3008v.89h2.3261V136.25h-2.3261Zm8.9941 5.174v-2.49h-1.084v2.49h-2.3789v1.078h2.3789v2.643h1.084v-2.643h2.3848v-1.078h-2.3848Zm7.8633-4.283v-.891h-2.3203v11.578h2.3203v-.89h-1.2949v-9.797h1.2949Zm4.7637-.891v.891h1.3007v9.797h-1.3007v.89h2.3261V136.25h-2.3261Zm9.8086 6.346v-.059c0-.598-.0469-1.135-.1407-1.611-.0898-.481-.205-.926-.3457-1.336-.1445-.426-.3125-.809-.5039-1.149-.1914-.339-.3965-.648-.6152-.925-.2109-.27-.4258-.5-.6445-.692-.2188-.191-.4258-.342-.6211-.451l-.2286.662c.129.106.2618.235.3985.387.1367.148.2695.322.3984.521.168.254.3321.553.4922.897.1602.34.2969.724.4102 1.154.0781.301.1484.666.2109 1.096.0664.43.0996.908.0996 1.435v.082c0 .465-.0254.903-.0762 1.313-.0468.406-.1152.785-.205 1.137-.086.379-.1973.726-.334 1.043-.1328.32-.2715.607-.416.861-.1524.25-.3125.471-.4805.662-.168.191-.334.348-.4981.469l.2286.662c.1953-.109.4004-.26.6152-.451.2188-.188.4355-.418.6504-.692.2109-.269.4121-.578.6035-.925.1953-.344.3672-.727.5156-1.149.1485-.418.2657-.873.3516-1.365.0898-.492.1348-1.018.1348-1.576Zm7.0488-5.455v-.891h-2.3203v11.578h2.3203v-.89h-1.2949v-9.797h1.2949Zm6.4336 6.099v-5.771h-1.0899v5.771h1.0899Zm-1.1953 2.192c0 .179.0547.33.164.451.1133.121.2813.181.5039.181.2227 0 .3907-.06.5039-.181.1172-.121.1758-.272.1758-.451 0-.188-.0586-.344-.1758-.469-.1132-.125-.2812-.188-.5039-.188-.2226 0-.3906.063-.5039.188-.1093.125-.164.281-.164.469Zm8.5195-4.008v-2.49h-1.084v2.49h-2.3789v1.078h2.3789v2.643h1.084v-2.643h2.3848v-1.078h-2.3848Zm7.8633-4.283v-.891h-2.3203v11.578h2.3203v-.89h-1.2949v-9.797h1.2949Zm4.7632-.891v.891h1.301v9.797h-1.301v.89h2.327V136.25h-2.327Zm8.995 5.174v-2.49h-1.084v2.49h-2.379v1.078h2.379v2.643h1.084v-2.643h2.384v-1.078h-2.384Zm7.089 1.816v-5.771h-1.089v5.771h1.089Zm-1.195 2.192c0 .179.055.33.164.451.113.121.281.181.504.181.223 0 .391-.06.504-.181.117-.121.176-.272.176-.451 0-.188-.059-.344-.176-.469-.113-.125-.281-.188-.504-.188-.223 0-.391.063-.504.188-.109.125-.164.281-.164.469Zm8.52-4.008v-2.49h-1.084v2.49h-2.379v1.078h2.379v2.643h1.084v-2.643h2.384v-1.078h-2.384Zm7.863-4.283v-.891h-2.32v11.578h2.32v-.89h-1.295v-9.797h1.295Zm4.764-.891v.891h1.3v9.797h-1.3v.89h2.326V136.25H137.1Zm7.207 0v.891h1.3v9.797h-1.3v.89h2.326V136.25h-2.326Zm8.994 5.174v-2.49h-1.084v2.49h-2.379v1.078h2.379v2.643h1.084v-2.643h2.385v-1.078h-2.385Zm5.138 1.113v.059c0 .558.043 1.084.129 1.576.09.492.209.947.358 1.365.144.422.312.805.504 1.149.195.347.4.656.615.925.211.274.424.504.639.692.218.191.425.342.621.451l.228-.662c-.16-.129-.32-.285-.48-.469-.157-.18-.309-.387-.457-.621-.145-.246-.284-.525-.416-.838-.133-.309-.25-.644-.352-1.008-.094-.359-.168-.752-.223-1.177-.054-.426-.082-.883-.082-1.372v-.082c0-.507.03-.982.088-1.423.059-.442.141-.846.246-1.213.11-.407.247-.78.411-1.119.164-.344.336-.643.515-.897.121-.164.244-.312.369-.445.129-.133.256-.246.381-.34l-.228-.715c-.196.109-.401.26-.616.451-.214.192-.427.422-.638.692-.215.269-.42.578-.615.925-.192.348-.362.731-.51 1.149-.149.422-.268.879-.358 1.371-.086.492-.129 1.018-.129 1.576Zm9.159.703v-5.771h-1.09v5.771h1.09Zm-1.196 2.192c0 .179.055.33.164.451.114.121.282.181.504.181.223 0 .391-.06.504-.181.117-.121.176-.272.176-.451 0-.188-.059-.344-.176-.469-.113-.125-.281-.188-.504-.188-.222 0-.39.063-.504.188-.109.125-.164.281-.164.469Zm9.176-8.291v-.891h-2.32v11.578h2.32v-.89h-1.295v-9.797h1.295Zm4.764-.891v.891h1.301v9.797h-1.301v.89h2.326V136.25h-2.326Zm8.994 5.174v-2.49h-1.084v2.49h-2.379v1.078h2.379v2.643h1.084v-2.643h2.385v-1.078h-2.385Zm7.863-4.283v-.891h-2.32v11.578h2.32v-.89h-1.295v-9.797h1.295Zm4.764-.891v.891h1.301v9.797h-1.301v.89h2.326V136.25h-2.326Zm9.808 6.346v-.059c0-.598-.046-1.135-.14-1.611-.09-.481-.205-.926-.346-1.336-.144-.426-.312-.809-.504-1.149-.191-.339-.396-.648-.615-.925-.211-.27-.426-.5-.645-.692-.218-.191-.425-.342-.621-.451l-.228.662c.129.106.262.235.398.387.137.148.27.322.399.521.168.254.332.553.492.897.16.34.297.724.41 1.154.078.301.149.666.211 1.096.066.43.1.908.1 1.435v.082c0 .465-.026.903-.077 1.313-.046.406-.115.785-.205 1.137-.086.379-.197.726-.334 1.043-.132.32-.271.607-.416.861-.152.25-.312.471-.48.662-.168.191-.334.348-.498.469l.228.662c.196-.109.401-.26.616-.451.218-.188.435-.418.65-.692.211-.269.412-.578.604-.925.195-.344.367-.727.515-1.149.149-.418.266-.873.352-1.365.09-.492.134-1.018.134-1.576Zm7.049-5.455v-.891h-2.32v11.578h2.32v-.89h-1.295v-9.797h1.295Zm6.551 4.283v-2.49h-1.084v2.49h-2.379v1.078h2.379v2.643h1.084v-2.643h2.385v-1.078h-2.385Zm7.09 1.816v-5.771h-1.09v5.771h1.09Zm-1.195 2.192c0 .179.054.33.164.451.113.121.281.181.504.181.222 0 .39-.06.504-.181.117-.121.175-.272.175-.451 0-.188-.058-.344-.175-.469-.114-.125-.282-.188-.504-.188-.223 0-.391.063-.504.188-.11.125-.164.281-.164.469Zm8.519-4.008v-2.49h-1.084v2.49h-2.379v1.078h2.379v2.643h1.084v-2.643h2.385v-1.078h-2.385Zm7.863-4.283v-.891h-2.32v11.578h2.32v-.89h-1.294v-9.797h1.294Zm4.764-.891v.891h1.301v9.797h-1.301v.89h2.326V136.25h-2.326Zm7.207 0v.891h1.301v9.797h-1.301v.89h2.326V136.25h-2.326Zm8.994 5.174v-2.49h-1.084v2.49h-2.379v1.078h2.379v2.643h1.084v-2.643h2.385v-1.078h-2.385Zm5.139 1.113v.059c0 .558.043 1.084.129 1.576.09.492.209.947.357 1.365.145.422.313.805.504 1.149.196.347.401.656.615.925.211.274.424.504.639.692.219.191.426.342.621.451l.229-.662c-.16-.129-.321-.285-.481-.469-.156-.18-.308-.387-.457-.621-.144-.246-.283-.525-.416-.838-.133-.309-.25-.644-.351-1.008-.094-.359-.168-.752-.223-1.177-.055-.426-.082-.883-.082-1.372v-.082c0-.507.029-.982.088-1.423.058-.442.14-.846.246-1.213.109-.407.246-.78.41-1.119.164-.344.336-.643.516-.897.121-.164.244-.312.369-.445.129-.133.256-.246.381-.34l-.229-.715c-.195.109-.4.26-.615.451-.215.192-.428.422-.639.692-.215.269-.42.578-.615.925-.191.348-.361.731-.51 1.149-.148.422-.267.879-.357 1.371-.086.492-.129 1.018-.129 1.576Zm9.158.703v-5.771h-1.09v5.771h1.09Zm-1.195 2.192c0 .179.055.33.164.451.113.121.281.181.504.181.222 0 .39-.06.504-.181.117-.121.175-.272.175-.451 0-.188-.058-.344-.175-.469-.114-.125-.282-.188-.504-.188-.223 0-.391.063-.504.188-.109.125-.164.281-.164.469Zm8.402-2.192v-5.771h-1.09v5.771h1.09Zm-1.195 2.192c0 .179.055.33.164.451.113.121.281.181.504.181.222 0 .39-.06.504-.181.117-.121.176-.272.176-.451 0-.188-.059-.344-.176-.469-.114-.125-.282-.188-.504-.188-.223 0-.391.063-.504.188-.109.125-.164.281-.164.469Zm9.176-8.291v-.891h-2.321v11.578h2.321v-.89h-1.295v-9.797h1.295Zm4.763-.891v.891h1.301v9.797h-1.301v.89h2.327V136.25h-2.327Zm8.994 5.174v-2.49h-1.084v2.49h-2.378v1.078h2.378v2.643h1.084v-2.643h2.385v-1.078h-2.385Zm7.864-4.283v-.891h-2.321v11.578h2.321v-.89h-1.295v-9.797h1.295Zm4.763-.891v.891h1.301v9.797h-1.301v.89h2.327V136.25h-2.327Zm9.809 6.346v-.059c0-.598-.047-1.135-.141-1.611-.089-.481-.205-.926-.345-1.336-.145-.426-.313-.809-.504-1.149-.192-.339-.397-.648-.615-.925-.211-.27-.426-.5-.645-.692-.219-.191-.426-.342-.621-.451l-.229.662c.129.106.262.235.399.387.137.148.269.322.398.521.168.254.332.553.492.897.161.34.297.724.411 1.154.078.301.148.666.211 1.096.066.43.099.908.099 1.435v.082c0 .465-.025.903-.076 1.313-.047.406-.115.785-.205 1.137-.086.379-.197.726-.334 1.043-.133.32-.272.607-.416.861-.152.25-.313.471-.481.662-.168.191-.334.348-.498.469l.229.662c.195-.109.4-.26.615-.451.219-.188.436-.418.651-.692.21-.269.412-.578.603-.925.195-.344.367-.727.516-1.149.148-.418.265-.873.351-1.365.09-.492.135-1.018.135-1.576Zm7.049-5.455v-.891h-2.32v11.578h2.32v-.89h-1.295v-9.797h1.295Zm6.551 4.283v-2.49h-1.084v2.49h-2.379v1.078h2.379v2.643h1.084v-2.643h2.384v-1.078h-2.384Zm7.863-4.283v-.891h-2.32v11.578h2.32v-.89h-1.295v-9.797h1.295Zm4.764-.891v.891h1.3v9.797h-1.3v.89h2.326V136.25h-2.326Zm7.207 0v.891h1.3v9.797h-1.3v.89h2.326V136.25h-2.326Zm7.207 0v.891h1.3v9.797h-1.3v.89h2.326V136.25h-2.326Zm9.808 6.346v-.059c0-.598-.047-1.135-.14-1.611-.09-.481-.205-.926-.346-1.336-.145-.426-.313-.809-.504-1.149-.191-.339-.396-.648-.615-.925-.211-.27-.426-.5-.645-.692-.219-.191-.426-.342-.621-.451l-.228.662c.129.106.261.235.398.387.137.148.27.322.399.521.167.254.332.553.492.897.16.34.297.724.41 1.154.078.301.148.666.211 1.096.066.43.099.908.099 1.435v.082c0 .465-.025.903-.076 1.313-.047.406-.115.785-.205 1.137-.086.379-.197.726-.334 1.043-.133.32-.271.607-.416.861-.152.25-.312.471-.48.662-.168.191-.334.348-.498.469l.228.662c.195-.109.401-.26.615-.451.219-.188.436-.418.651-.692.211-.269.412-.578.603-.925.196-.344.367-.727.516-1.149.148-.418.266-.873.351-1.365.09-.492.135-1.018.135-1.576Zm7.049-5.455v-.891h-2.32v11.578h2.32v-.89h-1.295v-9.797h1.295Zm6.434 6.099v-5.771h-1.09v5.771h1.09Zm-1.196 2.192c0 .179.055.33.164.451.114.121.282.181.504.181.223 0 .391-.06.504-.181.117-.121.176-.272.176-.451 0-.188-.059-.344-.176-.469-.113-.125-.281-.188-.504-.188-.222 0-.39.063-.504.188-.109.125-.164.281-.164.469Z"/>
  <path fill="url(#i)" d="M9.16016 157.424v-2.49H8.07617v2.49h-2.3789v1.078h2.3789v2.643h1.08399v-2.643h2.38474v-1.078H9.16016Zm7.86324-4.283v-.891h-2.3203v11.578h2.3203v-.89h-1.2949v-9.797h1.2949Zm4.7637-.891v.891h1.3008v9.797h-1.3008v.89h2.3262V152.25h-2.3262Zm8.9941 5.174v-2.49h-1.0839v2.49h-2.3789v1.078h2.3789v2.643h1.0839v-2.643h2.3848v-1.078h-2.3848Zm7.0899 1.816v-5.771h-1.0899v5.771h1.0899Zm-1.1953 2.192c0 .179.0547.33.164.451.1133.121.2813.181.504.181.2226 0 .3906-.06.5039-.181.1171-.121.1757-.272.1757-.451 0-.188-.0586-.344-.1757-.469-.1133-.125-.2813-.188-.5039-.188-.2227 0-.3907.063-.504.188-.1093.125-.164.281-.164.469Zm8.5195-4.008v-2.49h-1.084v2.49h-2.3789v1.078h2.3789v2.643h1.084v-2.643h2.3848v-1.078h-2.3848Zm7.8633-4.283v-.891h-2.3203v11.578h2.3203v-.89h-1.2949v-9.797h1.2949Zm4.7637-.891v.891h1.3007v9.797h-1.3007v.89h2.3261V152.25h-2.3261Zm8.9941 5.174v-2.49h-1.084v2.49h-2.3789v1.078h2.3789v2.643h1.084v-2.643h2.3848v-1.078h-2.3848Zm7.8633-4.283v-.891h-2.3203v11.578h2.3203v-.89h-1.2949v-9.797h1.2949Zm6.5508 4.283v-2.49h-1.084v2.49h-2.3789v1.078h2.3789v2.643h1.084v-2.643h2.3847v-1.078h-2.3847Zm7.8633-4.283v-.891h-2.3204v11.578h2.3204v-.89h-1.295v-9.797h1.295Zm4.7636-.891v.891h1.3008v9.797h-1.3008v.89h2.3262V152.25h-2.3262Zm7.2066 0v.891h1.301v9.797h-1.301v.89h2.327V152.25h-2.327Zm7.207 0v.891h1.301v9.797h-1.301v.89h2.327V152.25h-2.327Zm259.53 10.482 3.556-9.263h-.966l-3.563 9.263h.973Zm7.207 0 3.556-9.263h-.966l-3.563 9.263h.973Zm15.111-6.568c0 .227.07.42.211.58.145.156.358.235.639.235.277 0 .49-.079.638-.235.149-.156.223-.349.223-.58 0-.234-.074-.432-.223-.592-.144-.164-.357-.246-.638-.246-.285 0-.498.082-.639.246-.141.164-.211.362-.211.592Zm1.395 5.584v-1.031h-1.178v1.049c0 .332-.039.652-.117.961-.078.308-.211.599-.399.873l.674.369c.313-.278.561-.619.744-1.026.184-.406.276-.804.276-1.195Zm7.64-3.152v-.059c0-.598-.047-1.135-.14-1.611-.09-.481-.205-.926-.346-1.336-.145-.426-.313-.809-.504-1.149-.191-.339-.396-.648-.615-.925-.211-.27-.426-.5-.645-.692-.218-.191-.425-.342-.621-.451l-.228.662c.129.106.261.235.398.387.137.148.27.322.399.521.168.254.332.553.492.897.16.34.297.724.41 1.154.078.301.148.666.211 1.096.066.43.099.908.099 1.435v.082c0 .465-.025.903-.076 1.313-.047.406-.115.785-.205 1.137-.086.379-.197.726-.334 1.043-.133.32-.271.607-.416.861-.152.25-.312.471-.48.662-.168.191-.334.348-.498.469l.228.662c.196-.109.401-.26.615-.451.219-.188.436-.418.651-.692.211-.269.412-.578.603-.925.196-.344.368-.727.516-1.149.148-.418.266-.873.352-1.365.089-.492.134-1.018.134-1.576Z"/>
  <defs>
    <linearGradient id="a" x1="5" x2="405" y1="5" y2="4.99999" gradientUnits="userSpaceOnUse">
      <stop stop-color="#222"/>
      <stop offset="1" stop-color="#333"/>
    </linearGradient>
    <linearGradient id="b" x1="5" x2="405" y1="34" y2="34" gradientUnits="userSpaceOnUse">
      <stop stop-color="#333"/>
      <stop offset="1" stop-color="#444"/>
    </linearGradient>
    <linearGradient id="c" x1="5" x2="405" y1="50" y2="50" gradientUnits="userSpaceOnUse">
      <stop stop-color="#444"/>
      <stop offset="1" stop-color="#555"/>
    </linearGradient>
    <linearGradient id="d" x1="5" x2="405" y1="66" y2="66" gradientUnits="userSpaceOnUse">
      <stop stop-color="#555"/>
      <stop offset="1" stop-color="#666"/>
    </linearGradient>
    <linearGradient id="e" x1="5" x2="405" y1="82" y2="82" gradientUnits="userSpaceOnUse">
      <stop stop-color="#666"/>
      <stop offset="1" stop-color="#777"/>
      <stop offset="1" stop-color="#777"/>
    </linearGradient>
    <linearGradient id="f" x1="5" x2="405" y1="98" y2="98" gradientUnits="userSpaceOnUse">
      <stop stop-color="#777"/>
      <stop offset="1" stop-color="#888"/>
    </linearGradient>
    <linearGradient id="g" x1="205" x2="405" y1="130" y2="130" gradientUnits="userSpaceOnUse">
      <stop stop-color="#888"/>
      <stop offset="1" stop-color="#777"/>
    </linearGradient>
    <linearGradient id="h" x1="5" x2="405" y1="146" y2="146" gradientUnits="userSpaceOnUse">
      <stop stop-color="#777"/>
      <stop offset="1" stop-color="#666"/>
    </linearGradient>
    <linearGradient id="i" x1="5" x2="405" y1="162" y2="162" gradientUnits="userSpaceOnUse">
      <stop stop-color="#666"/>
      <stop offset="1" stop-color="#555"/>
    </linearGradient>
  </defs>
</svg>
