<svg xmlns="http://www.w3.org/2000/svg" width="200" height="100">
  <path fill="#111" d="M0 0h200v100H0z"/>
  <path fill="#fff" d="M28.68 35.64a9.24 9.24 0 0 1 1.62-5.45h.89c-.2.27-.4.62-.58 1.03a12.79 12.79 0 0 0-.9 4.41 11.14 11.14 0 0 0 .74 4c.22.6.46 1.09.74 1.46h-.89a9.25 9.25 0 0 1-1.62-5.45Zm6.55 2.83v-5.63h.95v5.63h-.95Zm-2.34-2.34v-.95h5.63v.95h-5.63Zm8.05-.5a9.24 9.24 0 0 1 1.62-5.45h.88c-.2.28-.4.63-.57 1.04a12.81 12.81 0 0 0-.9 4.41 11.14 11.14 0 0 0 .73 4 6 6 0 0 0 .74 1.46h-.88a9.25 9.25 0 0 1-1.62-5.45Zm6.55 2.84v-5.63h.95v5.63h-.95Zm-2.34-2.34v-.95h5.62v.95h-5.62Zm9.02-4.86-.09 6.28h-.99l-.08-6.28h1.16Zm-.58 8.8a.74.74 0 0 1-.54-.23.74.74 0 0 1-.23-.54c0-.2.08-.39.23-.54a.74.74 0 0 1 .54-.23c.2 0 .39.08.54.23a.74.74 0 0 1 .12.92.8.8 0 0 1-.28.29.73.73 0 0 1-.38.1Zm5.15-1.6v-5.63h.95v5.63h-.95Zm-2.34-2.34v-.95h5.62v.95H56.4Zm8.18 4.96V30.2h2.53v.83h-1.57v9.24h1.57v.83h-2.53Zm5.87-10.9v10.9h-2.53v-.83h1.57v-9.24h-1.57v-.84h2.53Zm4.9 8.28v-5.63h.95v5.63h-.96ZM73 36.13v-.95h5.62v.95H73Zm8.18 4.96V30.2h2.52v.83h-1.57v9.24h1.57v.83h-2.5Zm6.4-2.62v-5.63h.96v5.63h-.95Zm-2.33-2.34v-.95h5.63v.95h-5.63Zm9.02-4.86-.08 6.28h-1l-.08-6.28h1.16Zm-.58 8.8a.74.74 0 0 1-.54-.23.74.74 0 0 1-.23-.54c0-.2.08-.39.23-.54a.74.74 0 0 1 .54-.23c.21 0 .4.08.54.23.15.15.23.33.23.54a.8.8 0 0 1-.1.38.8.8 0 0 1-.28.29.73.73 0 0 1-.39.1Zm5.15-1.6v-5.63h.95v5.63h-.95Zm-2.34-2.34v-.95h5.63v.95H96.5Zm8.19 4.96V30.2h2.52v.83h-1.57v9.24h1.57v.83h-2.52Zm5.86-10.9v10.9h-2.52v-.83h1.57v-9.24h-1.57v-.84h2.52Zm4.35 0v10.9h-2.52v-.83h1.56v-9.24h-1.56v-.84h2.52Zm4.9 8.28v-5.63h.95v5.63h-.96Zm-2.34-2.34v-.95h5.62v.95h-5.62Zm8.04-.5a9.26 9.26 0 0 1 1.62-5.45h.89c-.2.28-.4.63-.58 1.04a12.77 12.77 0 0 0-.89 4.41 11.73 11.73 0 0 0 .72 4c.23.6.48 1.09.75 1.46h-.89a9.27 9.27 0 0 1-1.62-5.45Zm5.32-4.36-.08 6.28h-1l-.08-6.28h1.16Zm-.58 8.8a.74.74 0 0 1-.54-.23.74.74 0 0 1-.22-.54c0-.2.07-.39.22-.54a.74.74 0 0 1 .54-.23c.21 0 .4.08.54.23.15.15.23.33.23.54a.8.8 0 0 1-.1.38.8.8 0 0 1-.28.29.73.73 0 0 1-.39.1Zm3.92-8.8-.08 6.28h-1l-.08-6.28h1.16Zm-.58 8.8a.74.74 0 0 1-.54-.23.74.74 0 0 1-.23-.54c0-.2.08-.39.23-.54a.74.74 0 0 1 .54-.23c.21 0 .4.08.54.23.15.15.23.33.23.54a.8.8 0 0 1-.1.38.8.8 0 0 1-.28.29.73.73 0 0 1-.39.1Zm3.09 1.02V30.2h2.52v.83h-1.57v9.24h1.57v.83h-2.52Zm5.86-10.9v10.9h-2.52v-.83h1.57v-9.24h-1.57v-.84h2.52Zm4.9 8.28v-5.63h.95v5.63h-.96Zm-2.34-2.34v-.95h5.62v.95h-5.62Zm8.18 4.96V30.2h2.53v.83h-1.57v9.24h1.56v.83h-2.52Zm5.87-10.9v10.9h-2.53v-.83h1.57v-9.24h-1.57v-.84h2.53Zm4.48 5.45a9.17 9.17 0 0 1-1.62 5.45h-.89c.21-.28.4-.63.58-1.04a12.55 12.55 0 0 0 .9-4.41 11.1 11.1 0 0 0-.73-4 6.06 6.06 0 0 0-.75-1.46h.9a9.59 9.59 0 0 1 1.61 5.46Zm2.7 5.45V30.2h2.52v.83h-1.57v9.24h1.57v.83h-2.53Zm5.18-9.82-.09 6.28h-.99l-.08-6.28h1.16Zm-.58 8.8a.74.74 0 0 1-.54-.23.74.74 0 0 1-.23-.54c0-.2.08-.39.23-.54a.74.74 0 0 1 .54-.23c.2 0 .39.08.54.23.15.15.22.33.22.54a.7.7 0 0 1-.1.38.8.8 0 0 1-.28.29.73.73 0 0 1-.38.1Zm-127.5 13.4v-5.63h.95v5.63h-.95Zm-2.34-2.34v-.95h5.63v.95h-5.63Zm8.19 4.96V45.2h2.52v.83h-1.57v9.24h1.57v.83h-2.52Zm5.86-10.9v10.9h-2.52v-.83h1.57v-9.24H52.6v-.84h2.52Zm4.9 8.28v-5.63h.95v5.63h-.96Zm-2.34-2.34v-.95h5.62v.95H57.7Zm9.02-4.86-.09 6.28h-.99l-.08-6.28h1.16Zm-.58 8.8a.74.74 0 0 1-.54-.23.74.74 0 0 1-.23-.54c0-.2.08-.39.23-.54a.74.74 0 0 1 .54-.23c.2 0 .39.08.54.23.15.15.22.33.22.54a.7.7 0 0 1-.1.38.8.8 0 0 1-.28.29.73.73 0 0 1-.38.1Zm5.14-1.6v-5.63h.96v5.63h-.96Zm-2.33-2.34v-.95h5.62v.95h-5.62Zm8.18 4.96V45.2h2.52v.83h-1.56v9.24h1.56v.83h-2.52ZM83 45.2v10.9h-2.53v-.83h1.57v-9.24h-1.57v-.84H83Zm4.89 8.28v-5.63h.95v5.63h-.95Zm-2.34-2.34v-.95h5.63v.95h-5.63Zm9.02-4.86-.08 6.28h-1l-.08-6.28h1.16Zm-.58 8.8a.74.74 0 0 1-.54-.23.74.74 0 0 1-.22-.54c0-.2.07-.39.22-.54a.74.74 0 0 1 .54-.23c.21 0 .4.08.54.23.15.15.23.33.23.54a.8.8 0 0 1-.1.38.8.8 0 0 1-.28.29.73.73 0 0 1-.39.1Zm5.15-1.6v-5.63h.95v5.63h-.95Zm-2.34-2.34v-.95h5.63v.95H96.8Zm8.19 4.96V45.2h2.52v.83h-1.57v9.24h1.57v.83h-2.52Zm5.86-10.9v10.9h-2.52v-.83h1.57v-9.24h-1.57v-.84h2.52Zm4.35 0v10.9h-2.52v-.83h1.56v-9.24h-1.56v-.84h2.52Zm4.9 8.28v-5.63h.95v5.63h-.96Zm-2.34-2.34v-.95h5.62v.95h-5.62Zm8.18 4.96V45.2h2.52v.83h-1.56v9.24h1.56v.83h-2.52Zm5.18-9.82-.08 6.28h-1l-.08-6.28h1.16Zm-.58 8.8a.74.74 0 0 1-.54-.23.74.74 0 0 1-.22-.54c0-.2.07-.39.22-.54a.74.74 0 0 1 .54-.23c.21 0 .4.08.54.23a.7.7 0 0 1 .23.54.8.8 0 0 1-.1.38.79.79 0 0 1-.28.29.73.73 0 0 1-.39.1Zm5.15-1.6v-5.63h.95v5.63h-.95Zm-2.34-2.34v-.95h5.63v.95h-5.63Zm8.19 4.96V45.2h2.52v.83h-1.57v9.24h1.57v.83h-2.52Zm5.86-10.9v10.9h-2.52v-.83h1.57v-9.24h-1.57v-.84h2.52Zm4.9 8.28v-5.63h.95v5.63h-.95Zm-2.34-2.34v-.95h5.63v.95h-5.63Zm9.02-4.86-.09 6.28h-.98l-.09-6.28h1.16Zm-.58 8.8a.74.74 0 0 1-.54-.23.74.74 0 0 1-.23-.54c0-.2.08-.39.23-.54a.74.74 0 0 1 .54-.23c.2 0 .39.08.54.23a.74.74 0 0 1 .12.92.8.8 0 0 1-.28.29.73.73 0 0 1-.38.1ZM45.47 68.47v-5.63h.95v5.63h-.95Zm-2.34-2.34v-.95h5.63v.95h-5.63Zm8.19 4.96V60.2h2.52v.83h-1.57v9.24h1.57v.83h-2.52Zm5.86-10.9v10.9h-2.52v-.83h1.57v-9.24h-1.57v-.84h2.52Zm4.35 0v10.9H59v-.83h1.56v-9.24H59v-.84h2.52Zm4.9 8.28v-5.63h.95v5.63h-.96Zm-2.34-2.34v-.95h5.62v.95H64.1Zm8.18 4.96V60.2h2.52v.83h-1.57v9.24h1.57v.83h-2.52Zm6.41-2.62v-5.63h.95v5.63h-.95Zm-2.33-2.34v-.95h5.62v.95h-5.62Zm8.18 4.96V60.2h2.52v.83h-1.57v9.24h1.57v.83h-2.52Zm5.86-10.9v10.9h-2.52v-.83h1.57v-9.24h-1.57v-.84h2.52Zm4.35 0v10.9h-2.52v-.83h1.57v-9.24h-1.57v-.84h2.52Zm4.48 5.45a9.16 9.16 0 0 1-1.62 5.45h-.88c.2-.28.4-.63.57-1.04a12.44 12.44 0 0 0 .9-4.41 11.14 11.14 0 0 0-.73-4 6.1 6.1 0 0 0-.74-1.46h.89c.52.76.91 1.6 1.2 2.5.27.9.41 1.88.41 2.96Zm4.76 2.83v-5.63h.96v5.63h-.96Zm-2.33-2.34v-.95h5.62v.95h-5.62Zm8.18 4.96V60.2h2.52v.83h-1.57v9.24h1.57v.83h-2.52Zm5.86-10.9v10.9h-2.52v-.83h1.57v-9.24h-1.57v-.84h2.52Zm4.49 5.45a9.17 9.17 0 0 1-1.62 5.45h-.89c.2-.28.4-.63.57-1.04a12.55 12.55 0 0 0 .9-4.41 11.2 11.2 0 0 0-.73-4 6.06 6.06 0 0 0-.74-1.46h.89a9.3 9.3 0 0 1 1.62 5.46Zm2.7 5.45V60.2h2.52v.83h-1.57v9.24h1.56v.83h-2.52Zm6.4-2.62v-5.63h.96v5.63h-.96Zm-2.33-2.34v-.95h5.62v.95h-5.62Zm9.02-4.86-.09 6.28h-.99l-.08-6.28h1.16Zm-.59 8.8a.74.74 0 0 1-.54-.23.74.74 0 0 1-.22-.54c0-.2.07-.39.22-.54a.74.74 0 0 1 .54-.23c.22 0 .4.08.55.23.15.15.22.33.22.54a.7.7 0 0 1-.1.38.8.8 0 0 1-.28.29.73.73 0 0 1-.39.1Zm5.15-1.6v-5.63h.96v5.63h-.96Zm-2.33-2.34v-.95h5.62v.95h-5.62Zm8.18 4.96V60.2h2.52v.83h-1.57v9.24h1.57v.83h-2.52Zm5.86-10.9v10.9h-2.52v-.83h1.57v-9.24h-1.57v-.84h2.52Zm4.35 0v10.9h-2.52v-.83h1.57v-9.24h-1.57v-.84h2.52Z"/>
  <text style="Oops, what's this?">(+(+!+[]+[+!+[]]+(!![]+[])[!+[]+!+[]+!+[]]+[!+[]+!+[]]+[+[]])+[])[+!+[]]</text>
</svg>
