<svg xmlns="http://www.w3.org/2000/svg" width="28" height="5" fill="none" viewBox="0 0 28 5"><mask id="a" width="5" height="5" x="0" y="0" maskUnits="userSpaceOnUse" style="mask-type:alpha"><circle cx="2.5" cy="2.5" r="2.5" fill="#eaeaea"/></mask><g mask="url(#a)"><circle cx="2.5" cy="2.5" r="2.35" fill="#111" stroke="#eaeaea" stroke-width=".3"/><path stroke="#eaeaea" stroke-width=".3" d="m3 3 2 2M3 2l2-2"/><g clip-path="url(#b)" data-figma-skip-parse="true"><foreignObject width="10000" height="10000" x="-5000" y="-5000" transform="translate(2.5 2.5)scale(.0005)"><div xmlns="http://www.w3.org/1999/xhtml" style="background:conic-gradient(from 90deg,rgba(127,162,150,1) 0deg,rgba(254,188,47,1) 89.5805deg,rgba(0,136,255,1) 269.741deg,rgba(127,162,150,1) 360deg);height:100%;width:100%;opacity:1"/></foreignObject></g><path stroke="#eaeaea" d="M2.5 1.5c.5523 0 1 .4477 1 1s-.4477 1-1 1-1-.4477-1-1 .4477-1 1-1Z" data-figma-gradient-fill="{&quot;type&quot;:&quot;GRADIENT_ANGULAR&quot;,&quot;stops&quot;:[{&quot;color&quot;:{&quot;r&quot;:0.99607843160629272,&quot;g&quot;:0.73725491762161255,&quot;b&quot;:0.18431372940540314,&quot;a&quot;:1.0},&quot;position&quot;:0.24883478879928589},{&quot;color&quot;:{&quot;r&quot;:0.0,&quot;g&quot;:0.53333336114883423,&quot;b&quot;:1.0,&quot;a&quot;:1.0},&quot;position&quot;:0.74928003549575806}],&quot;stopsVar&quot;:[{&quot;color&quot;:{&quot;r&quot;:0.99607843160629272,&quot;g&quot;:0.73725491762161255,&quot;b&quot;:0.18431372940540314,&quot;a&quot;:1.0},&quot;position&quot;:0.24883478879928589},{&quot;color&quot;:{&quot;r&quot;:0.0,&quot;g&quot;:0.53333336114883423,&quot;b&quot;:1.0,&quot;a&quot;:1.0},&quot;position&quot;:0.74928003549575806}],&quot;transform&quot;:{&quot;m00&quot;:0.99999982118606567,&quot;m01&quot;:-7.8393355806838372e-07,&quot;m02&quot;:2.0000007152557373,&quot;m10&quot;:7.8393355806838372e-07,&quot;m11&quot;:0.99999982118606567,&quot;m12&quot;:1.9999997615814209},&quot;opacity&quot;:1.0,&quot;blendMode&quot;:&quot;NORMAL&quot;,&quot;visible&quot;:true}"/></g><circle cx="8.5" cy="2.5" r="2.125" fill="#111" stroke="#eaeaea" stroke-width=".75"/><path fill="#111" stroke="#eaeaea" stroke-width=".3" d="M14.5.1504c1.2979 0 2.3496 1.0517 2.3496 2.3496v2.3496h-4.6992V.1504z"/><path fill="#111" stroke="#eaeaea" stroke-width=".3" d="M14.5.1504c.4222 0 .7754.1172 1.0234.2353.1235.0589.22.1177.2852.1612q.0232.0157.041.0283V2.085l-.4141-.4971a1.217 1.217 0 0 0-.9355-.4375c-.7456 0-1.3496.604-1.3496 1.3496s.604 1.3496 1.3496 1.3496h.7148c.4486.0001.872.2089 1.1456.5645l.3349.4355H14.5c-1.2979 0-2.3496-1.0517-2.3496-2.3496S13.2021.1504 14.5.1504Z"/><g clip-path="url(#c)" data-figma-skip-parse="true"><foreignObject width="10000" height="10000" x="-5000" y="-5000" transform="translate(14.5 2.5)scale(.0005)"><div xmlns="http://www.w3.org/1999/xhtml" style="background:conic-gradient(from 90deg,rgba(127,162,150,1) 0deg,rgba(254,188,47,1) 89.5805deg,rgba(0,136,255,1) 269.741deg,rgba(127,162,150,1) 360deg);height:100%;width:100%;opacity:1"/></foreignObject></g><path stroke="#eaeaea" d="M14.5 1.5c.5523 0 1 .4477 1 1s-.4477 1-1 1-1-.4477-1-1 .4477-1 1-1Z" data-figma-gradient-fill="{&quot;type&quot;:&quot;GRADIENT_ANGULAR&quot;,&quot;stops&quot;:[{&quot;color&quot;:{&quot;r&quot;:0.99607843160629272,&quot;g&quot;:0.73725491762161255,&quot;b&quot;:0.18431372940540314,&quot;a&quot;:1.0},&quot;position&quot;:0.24883478879928589},{&quot;color&quot;:{&quot;r&quot;:0.0,&quot;g&quot;:0.53333336114883423,&quot;b&quot;:1.0,&quot;a&quot;:1.0},&quot;position&quot;:0.74928003549575806}],&quot;stopsVar&quot;:[{&quot;color&quot;:{&quot;r&quot;:0.99607843160629272,&quot;g&quot;:0.73725491762161255,&quot;b&quot;:0.18431372940540314,&quot;a&quot;:1.0},&quot;position&quot;:0.24883478879928589},{&quot;color&quot;:{&quot;r&quot;:0.0,&quot;g&quot;:0.53333336114883423,&quot;b&quot;:1.0,&quot;a&quot;:1.0},&quot;position&quot;:0.74928003549575806}],&quot;transform&quot;:{&quot;m00&quot;:0.99999982118606567,&quot;m01&quot;:-7.8393355806838372e-07,&quot;m02&quot;:14.000000953674316,&quot;m10&quot;:7.8393355806838372e-07,&quot;m11&quot;:0.99999982118606567,&quot;m12&quot;:1.9999992847442627},&quot;opacity&quot;:1.0,&quot;blendMode&quot;:&quot;NORMAL&quot;,&quot;visible&quot;:true}"/><path fill="#eaeaea" d="M18 4.25V5h3c.5523 0 1-.4477 1-1V0h-3.25a.75.75 0 0 0-.75.75h3v.375c0 .5523-.4477 1-1 1h-2v.75h2c.5523 0 1 .4477 1 1v.375z"/><path fill="#111" stroke="#eaeaea" stroke-width=".3" d="M25.5.1504c-1.2979 0-2.3496 1.0517-2.3496 2.3496v2.3496h4.6992V.1504z"/><path fill="#111" stroke="#eaeaea" stroke-width=".3" d="M25.5.1504c-.4222 0-.7754.1172-1.0234.2353a2.3 2.3 0 0 0-.2852.1612 2 2 0 0 0-.041.0283V2.085l.4141-.4971a1.217 1.217 0 0 1 .9355-.4375c.7456 0 1.3496.604 1.3496 1.3496s-.604 1.3496-1.3496 1.3496h-.7148a1.447 1.447 0 0 0-1.1456.5645l-.3349.4355H25.5c1.2979 0 2.3496-1.0517 2.3496-2.3496S26.7979.1504 25.5.1504Z"/><g clip-path="url(#d)" data-figma-skip-parse="true"><foreignObject width="10000" height="10000" x="-5000" y="-5000" transform="matrix(-.0005 0 0 .0005 25.5 2.5)"><div xmlns="http://www.w3.org/1999/xhtml" style="background:conic-gradient(from 90deg,rgba(127,162,150,1) 0deg,rgba(254,188,47,1) 89.5805deg,rgba(0,136,255,1) 269.741deg,rgba(127,162,150,1) 360deg);height:100%;width:100%;opacity:1"/></foreignObject></g><path stroke="#eaeaea" d="M25.5 1.5c-.5523 0-1 .4477-1 1s.4477 1 1 1 1-.4477 1-1-.4477-1-1-1Z" data-figma-gradient-fill="{&quot;type&quot;:&quot;GRADIENT_ANGULAR&quot;,&quot;stops&quot;:[{&quot;color&quot;:{&quot;r&quot;:0.99607843160629272,&quot;g&quot;:0.73725491762161255,&quot;b&quot;:0.18431372940540314,&quot;a&quot;:1.0},&quot;position&quot;:0.24883478879928589},{&quot;color&quot;:{&quot;r&quot;:0.0,&quot;g&quot;:0.53333336114883423,&quot;b&quot;:1.0,&quot;a&quot;:1.0},&quot;position&quot;:0.74928003549575806}],&quot;stopsVar&quot;:[{&quot;color&quot;:{&quot;r&quot;:0.99607843160629272,&quot;g&quot;:0.73725491762161255,&quot;b&quot;:0.18431372940540314,&quot;a&quot;:1.0},&quot;position&quot;:0.24883478879928589},{&quot;color&quot;:{&quot;r&quot;:0.0,&quot;g&quot;:0.53333336114883423,&quot;b&quot;:1.0,&quot;a&quot;:1.0},&quot;position&quot;:0.74928003549575806}],&quot;transform&quot;:{&quot;m00&quot;:-0.99999982118606567,&quot;m01&quot;:7.8393355806838372e-07,&quot;m02&quot;:26.0,&quot;m10&quot;:7.8393355806838372e-07,&quot;m11&quot;:0.99999982118606567,&quot;m12&quot;:1.9999992847442627},&quot;opacity&quot;:1.0,&quot;blendMode&quot;:&quot;NORMAL&quot;,&quot;visible&quot;:true}"/><defs><clipPath id="b"><path d="M2.5 1.5c.5523 0 1 .4477 1 1s-.4477 1-1 1-1-.4477-1-1 .4477-1 1-1"/></clipPath><clipPath id="c"><path d="M14.5 1.5c.5523 0 1 .4477 1 1s-.4477 1-1 1-1-.4477-1-1 .4477-1 1-1"/></clipPath><clipPath id="d"><path d="M25.5 1.5c-.5523 0-1 .4477-1 1s.4477 1 1 1 1-.4477 1-1-.4477-1-1-1"/></clipPath></defs></svg>
